%TF.GenerationSoftware,KiCad,Pcbnew,7.0.0-da2b9df05c~163~ubuntu22.04.1*%
%TF.CreationDate,2023-03-09T00:12:33+01:00*%
%TF.ProjectId,Boite,426f6974-652e-46b6-9963-61645f706362,rev?*%
%TF.SameCoordinates,Original*%
%TF.FileFunction,Soldermask,Top*%
%TF.FilePolarity,Negative*%
%FSLAX46Y46*%
G04 Gerber Fmt 4.6, Leading zero omitted, Abs format (unit mm)*
G04 Created by KiCad (PCBNEW 7.0.0-da2b9df05c~163~ubuntu22.04.1) date 2023-03-09 00:12:33*
%MOMM*%
%LPD*%
G01*
G04 APERTURE LIST*
G04 Aperture macros list*
%AMRoundRect*
0 Rectangle with rounded corners*
0 $1 Rounding radius*
0 $2 $3 $4 $5 $6 $7 $8 $9 X,Y pos of 4 corners*
0 Add a 4 corners polygon primitive as box body*
4,1,4,$2,$3,$4,$5,$6,$7,$8,$9,$2,$3,0*
0 Add four circle primitives for the rounded corners*
1,1,$1+$1,$2,$3*
1,1,$1+$1,$4,$5*
1,1,$1+$1,$6,$7*
1,1,$1+$1,$8,$9*
0 Add four rect primitives between the rounded corners*
20,1,$1+$1,$2,$3,$4,$5,0*
20,1,$1+$1,$4,$5,$6,$7,0*
20,1,$1+$1,$6,$7,$8,$9,0*
20,1,$1+$1,$8,$9,$2,$3,0*%
G04 Aperture macros list end*
%ADD10C,3.800000*%
%ADD11R,1.000000X1.000000*%
%ADD12O,1.000000X1.000000*%
%ADD13RoundRect,0.200000X-0.275000X0.200000X-0.275000X-0.200000X0.275000X-0.200000X0.275000X0.200000X0*%
%ADD14RoundRect,0.225000X0.225000X0.250000X-0.225000X0.250000X-0.225000X-0.250000X0.225000X-0.250000X0*%
%ADD15RoundRect,0.200000X0.275000X-0.200000X0.275000X0.200000X-0.275000X0.200000X-0.275000X-0.200000X0*%
%ADD16RoundRect,0.200000X0.200000X0.275000X-0.200000X0.275000X-0.200000X-0.275000X0.200000X-0.275000X0*%
%ADD17RoundRect,0.150000X-0.825000X-0.150000X0.825000X-0.150000X0.825000X0.150000X-0.825000X0.150000X0*%
%ADD18R,2.290000X3.000000*%
%ADD19R,1.600000X1.600000*%
%ADD20O,1.600000X1.600000*%
G04 APERTURE END LIST*
D10*
%TO.C,REF\u002A\u002A*%
X111000000Y-71000000D03*
%TD*%
%TO.C,REF\u002A\u002A*%
X111000000Y-54000000D03*
%TD*%
%TO.C,REF\u002A\u002A*%
X53400000Y-61800000D03*
%TD*%
D11*
%TO.C,J2*%
X112049999Y-62349999D03*
D12*
X112049999Y-63619999D03*
X112049999Y-64889999D03*
%TD*%
D13*
%TO.C,R6*%
X99800000Y-67250000D03*
X99800000Y-65600000D03*
%TD*%
D14*
%TO.C,C1*%
X97500000Y-61100000D03*
X95950000Y-61100000D03*
%TD*%
D13*
%TO.C,R5*%
X102000000Y-62350000D03*
X102000000Y-60700000D03*
%TD*%
D15*
%TO.C,R7*%
X102000000Y-63950000D03*
X102000000Y-65600000D03*
%TD*%
D16*
%TO.C,R1*%
X93150000Y-61100000D03*
X91500000Y-61100000D03*
%TD*%
D11*
%TO.C,J3*%
X52999999Y-71999999D03*
D12*
X52999999Y-70729999D03*
%TD*%
D17*
%TO.C,U2*%
X92050000Y-63000000D03*
X92050000Y-64270000D03*
X92050000Y-65540000D03*
X92050000Y-66810000D03*
X97000000Y-66810000D03*
X97000000Y-65540000D03*
X97000000Y-64270000D03*
X97000000Y-63000000D03*
D18*
X94524999Y-64904999D03*
%TD*%
D11*
%TO.C,J1*%
X52999999Y-52999999D03*
D12*
X52999999Y-54269999D03*
X52999999Y-55539999D03*
%TD*%
D13*
%TO.C,R4*%
X83800000Y-63260000D03*
X83800000Y-64910000D03*
%TD*%
%TO.C,R3*%
X87300000Y-63260000D03*
X87300000Y-64910000D03*
%TD*%
%TO.C,R2*%
X85550000Y-63260000D03*
X85550000Y-64910000D03*
%TD*%
D19*
%TO.C,A3*%
X59919999Y-55759999D03*
D20*
X62459999Y-55759999D03*
X64999999Y-55759999D03*
X67539999Y-55759999D03*
X70079999Y-55759999D03*
X72619999Y-55759999D03*
X75159999Y-55759999D03*
X77699999Y-55759999D03*
X80239999Y-55759999D03*
X82779999Y-55759999D03*
X85319999Y-55759999D03*
X87859999Y-55759999D03*
X90399999Y-55759999D03*
X92939999Y-55759999D03*
X95479999Y-55759999D03*
X95479999Y-70999999D03*
X92939999Y-70999999D03*
X90399999Y-70999999D03*
X87859999Y-70999999D03*
X85319999Y-70999999D03*
X82779999Y-70999999D03*
X80239999Y-70999999D03*
X77699999Y-70999999D03*
X75159999Y-70999999D03*
X72619999Y-70999999D03*
X70079999Y-70999999D03*
X67539999Y-70999999D03*
X64999999Y-70999999D03*
X62459999Y-70999999D03*
X59919999Y-70999999D03*
%TD*%
M02*
