%TF.GenerationSoftware,KiCad,Pcbnew,7.0.0-da2b9df05c~163~ubuntu22.04.1*%
%TF.CreationDate,2023-03-09T00:12:33+01:00*%
%TF.ProjectId,Boite,426f6974-652e-46b6-9963-61645f706362,rev?*%
%TF.SameCoordinates,Original*%
%TF.FileFunction,Legend,Top*%
%TF.FilePolarity,Positive*%
%FSLAX46Y46*%
G04 Gerber Fmt 4.6, Leading zero omitted, Abs format (unit mm)*
G04 Created by KiCad (PCBNEW 7.0.0-da2b9df05c~163~ubuntu22.04.1) date 2023-03-09 00:12:33*
%MOMM*%
%LPD*%
G01*
G04 APERTURE LIST*
%ADD10C,0.150000*%
%ADD11C,0.120000*%
G04 APERTURE END LIST*
D10*
%TO.C,J2*%
X111716666Y-60022380D02*
X111716666Y-60736666D01*
X111716666Y-60736666D02*
X111669047Y-60879523D01*
X111669047Y-60879523D02*
X111573809Y-60974761D01*
X111573809Y-60974761D02*
X111430952Y-61022380D01*
X111430952Y-61022380D02*
X111335714Y-61022380D01*
X112145238Y-60117619D02*
X112192857Y-60070000D01*
X112192857Y-60070000D02*
X112288095Y-60022380D01*
X112288095Y-60022380D02*
X112526190Y-60022380D01*
X112526190Y-60022380D02*
X112621428Y-60070000D01*
X112621428Y-60070000D02*
X112669047Y-60117619D01*
X112669047Y-60117619D02*
X112716666Y-60212857D01*
X112716666Y-60212857D02*
X112716666Y-60308095D01*
X112716666Y-60308095D02*
X112669047Y-60450952D01*
X112669047Y-60450952D02*
X112097619Y-61022380D01*
X112097619Y-61022380D02*
X112716666Y-61022380D01*
%TO.C,R6*%
X99733333Y-69267380D02*
X99400000Y-68791190D01*
X99161905Y-69267380D02*
X99161905Y-68267380D01*
X99161905Y-68267380D02*
X99542857Y-68267380D01*
X99542857Y-68267380D02*
X99638095Y-68315000D01*
X99638095Y-68315000D02*
X99685714Y-68362619D01*
X99685714Y-68362619D02*
X99733333Y-68457857D01*
X99733333Y-68457857D02*
X99733333Y-68600714D01*
X99733333Y-68600714D02*
X99685714Y-68695952D01*
X99685714Y-68695952D02*
X99638095Y-68743571D01*
X99638095Y-68743571D02*
X99542857Y-68791190D01*
X99542857Y-68791190D02*
X99161905Y-68791190D01*
X100590476Y-68267380D02*
X100400000Y-68267380D01*
X100400000Y-68267380D02*
X100304762Y-68315000D01*
X100304762Y-68315000D02*
X100257143Y-68362619D01*
X100257143Y-68362619D02*
X100161905Y-68505476D01*
X100161905Y-68505476D02*
X100114286Y-68695952D01*
X100114286Y-68695952D02*
X100114286Y-69076904D01*
X100114286Y-69076904D02*
X100161905Y-69172142D01*
X100161905Y-69172142D02*
X100209524Y-69219761D01*
X100209524Y-69219761D02*
X100304762Y-69267380D01*
X100304762Y-69267380D02*
X100495238Y-69267380D01*
X100495238Y-69267380D02*
X100590476Y-69219761D01*
X100590476Y-69219761D02*
X100638095Y-69172142D01*
X100638095Y-69172142D02*
X100685714Y-69076904D01*
X100685714Y-69076904D02*
X100685714Y-68838809D01*
X100685714Y-68838809D02*
X100638095Y-68743571D01*
X100638095Y-68743571D02*
X100590476Y-68695952D01*
X100590476Y-68695952D02*
X100495238Y-68648333D01*
X100495238Y-68648333D02*
X100304762Y-68648333D01*
X100304762Y-68648333D02*
X100209524Y-68695952D01*
X100209524Y-68695952D02*
X100161905Y-68743571D01*
X100161905Y-68743571D02*
X100114286Y-68838809D01*
%TO.C,C1*%
X95833333Y-59972142D02*
X95785714Y-60019761D01*
X95785714Y-60019761D02*
X95642857Y-60067380D01*
X95642857Y-60067380D02*
X95547619Y-60067380D01*
X95547619Y-60067380D02*
X95404762Y-60019761D01*
X95404762Y-60019761D02*
X95309524Y-59924523D01*
X95309524Y-59924523D02*
X95261905Y-59829285D01*
X95261905Y-59829285D02*
X95214286Y-59638809D01*
X95214286Y-59638809D02*
X95214286Y-59495952D01*
X95214286Y-59495952D02*
X95261905Y-59305476D01*
X95261905Y-59305476D02*
X95309524Y-59210238D01*
X95309524Y-59210238D02*
X95404762Y-59115000D01*
X95404762Y-59115000D02*
X95547619Y-59067380D01*
X95547619Y-59067380D02*
X95642857Y-59067380D01*
X95642857Y-59067380D02*
X95785714Y-59115000D01*
X95785714Y-59115000D02*
X95833333Y-59162619D01*
X96785714Y-60067380D02*
X96214286Y-60067380D01*
X96500000Y-60067380D02*
X96500000Y-59067380D01*
X96500000Y-59067380D02*
X96404762Y-59210238D01*
X96404762Y-59210238D02*
X96309524Y-59305476D01*
X96309524Y-59305476D02*
X96214286Y-59353095D01*
%TO.C,R5*%
X103917380Y-61016666D02*
X103441190Y-61349999D01*
X103917380Y-61588094D02*
X102917380Y-61588094D01*
X102917380Y-61588094D02*
X102917380Y-61207142D01*
X102917380Y-61207142D02*
X102965000Y-61111904D01*
X102965000Y-61111904D02*
X103012619Y-61064285D01*
X103012619Y-61064285D02*
X103107857Y-61016666D01*
X103107857Y-61016666D02*
X103250714Y-61016666D01*
X103250714Y-61016666D02*
X103345952Y-61064285D01*
X103345952Y-61064285D02*
X103393571Y-61111904D01*
X103393571Y-61111904D02*
X103441190Y-61207142D01*
X103441190Y-61207142D02*
X103441190Y-61588094D01*
X102917380Y-60111904D02*
X102917380Y-60588094D01*
X102917380Y-60588094D02*
X103393571Y-60635713D01*
X103393571Y-60635713D02*
X103345952Y-60588094D01*
X103345952Y-60588094D02*
X103298333Y-60492856D01*
X103298333Y-60492856D02*
X103298333Y-60254761D01*
X103298333Y-60254761D02*
X103345952Y-60159523D01*
X103345952Y-60159523D02*
X103393571Y-60111904D01*
X103393571Y-60111904D02*
X103488809Y-60064285D01*
X103488809Y-60064285D02*
X103726904Y-60064285D01*
X103726904Y-60064285D02*
X103822142Y-60111904D01*
X103822142Y-60111904D02*
X103869761Y-60159523D01*
X103869761Y-60159523D02*
X103917380Y-60254761D01*
X103917380Y-60254761D02*
X103917380Y-60492856D01*
X103917380Y-60492856D02*
X103869761Y-60588094D01*
X103869761Y-60588094D02*
X103822142Y-60635713D01*
%TO.C,R7*%
X103967380Y-64416666D02*
X103491190Y-64749999D01*
X103967380Y-64988094D02*
X102967380Y-64988094D01*
X102967380Y-64988094D02*
X102967380Y-64607142D01*
X102967380Y-64607142D02*
X103015000Y-64511904D01*
X103015000Y-64511904D02*
X103062619Y-64464285D01*
X103062619Y-64464285D02*
X103157857Y-64416666D01*
X103157857Y-64416666D02*
X103300714Y-64416666D01*
X103300714Y-64416666D02*
X103395952Y-64464285D01*
X103395952Y-64464285D02*
X103443571Y-64511904D01*
X103443571Y-64511904D02*
X103491190Y-64607142D01*
X103491190Y-64607142D02*
X103491190Y-64988094D01*
X102967380Y-64083332D02*
X102967380Y-63416666D01*
X102967380Y-63416666D02*
X103967380Y-63845237D01*
%TO.C,R1*%
X92733333Y-59917380D02*
X92400000Y-59441190D01*
X92161905Y-59917380D02*
X92161905Y-58917380D01*
X92161905Y-58917380D02*
X92542857Y-58917380D01*
X92542857Y-58917380D02*
X92638095Y-58965000D01*
X92638095Y-58965000D02*
X92685714Y-59012619D01*
X92685714Y-59012619D02*
X92733333Y-59107857D01*
X92733333Y-59107857D02*
X92733333Y-59250714D01*
X92733333Y-59250714D02*
X92685714Y-59345952D01*
X92685714Y-59345952D02*
X92638095Y-59393571D01*
X92638095Y-59393571D02*
X92542857Y-59441190D01*
X92542857Y-59441190D02*
X92161905Y-59441190D01*
X93685714Y-59917380D02*
X93114286Y-59917380D01*
X93400000Y-59917380D02*
X93400000Y-58917380D01*
X93400000Y-58917380D02*
X93304762Y-59060238D01*
X93304762Y-59060238D02*
X93209524Y-59155476D01*
X93209524Y-59155476D02*
X93114286Y-59203095D01*
%TO.C,J3*%
X55066666Y-72817380D02*
X55066666Y-73531666D01*
X55066666Y-73531666D02*
X55019047Y-73674523D01*
X55019047Y-73674523D02*
X54923809Y-73769761D01*
X54923809Y-73769761D02*
X54780952Y-73817380D01*
X54780952Y-73817380D02*
X54685714Y-73817380D01*
X55447619Y-72817380D02*
X56066666Y-72817380D01*
X56066666Y-72817380D02*
X55733333Y-73198333D01*
X55733333Y-73198333D02*
X55876190Y-73198333D01*
X55876190Y-73198333D02*
X55971428Y-73245952D01*
X55971428Y-73245952D02*
X56019047Y-73293571D01*
X56019047Y-73293571D02*
X56066666Y-73388809D01*
X56066666Y-73388809D02*
X56066666Y-73626904D01*
X56066666Y-73626904D02*
X56019047Y-73722142D01*
X56019047Y-73722142D02*
X55971428Y-73769761D01*
X55971428Y-73769761D02*
X55876190Y-73817380D01*
X55876190Y-73817380D02*
X55590476Y-73817380D01*
X55590476Y-73817380D02*
X55495238Y-73769761D01*
X55495238Y-73769761D02*
X55447619Y-73722142D01*
%TO.C,U2*%
X93838095Y-67967380D02*
X93838095Y-68776904D01*
X93838095Y-68776904D02*
X93885714Y-68872142D01*
X93885714Y-68872142D02*
X93933333Y-68919761D01*
X93933333Y-68919761D02*
X94028571Y-68967380D01*
X94028571Y-68967380D02*
X94219047Y-68967380D01*
X94219047Y-68967380D02*
X94314285Y-68919761D01*
X94314285Y-68919761D02*
X94361904Y-68872142D01*
X94361904Y-68872142D02*
X94409523Y-68776904D01*
X94409523Y-68776904D02*
X94409523Y-67967380D01*
X94838095Y-68062619D02*
X94885714Y-68015000D01*
X94885714Y-68015000D02*
X94980952Y-67967380D01*
X94980952Y-67967380D02*
X95219047Y-67967380D01*
X95219047Y-67967380D02*
X95314285Y-68015000D01*
X95314285Y-68015000D02*
X95361904Y-68062619D01*
X95361904Y-68062619D02*
X95409523Y-68157857D01*
X95409523Y-68157857D02*
X95409523Y-68253095D01*
X95409523Y-68253095D02*
X95361904Y-68395952D01*
X95361904Y-68395952D02*
X94790476Y-68967380D01*
X94790476Y-68967380D02*
X95409523Y-68967380D01*
%TO.C,J1*%
X55216666Y-51567380D02*
X55216666Y-52281666D01*
X55216666Y-52281666D02*
X55169047Y-52424523D01*
X55169047Y-52424523D02*
X55073809Y-52519761D01*
X55073809Y-52519761D02*
X54930952Y-52567380D01*
X54930952Y-52567380D02*
X54835714Y-52567380D01*
X56216666Y-52567380D02*
X55645238Y-52567380D01*
X55930952Y-52567380D02*
X55930952Y-51567380D01*
X55930952Y-51567380D02*
X55835714Y-51710238D01*
X55835714Y-51710238D02*
X55740476Y-51805476D01*
X55740476Y-51805476D02*
X55645238Y-51853095D01*
%TO.C,R4*%
X84267380Y-67016666D02*
X83791190Y-67349999D01*
X84267380Y-67588094D02*
X83267380Y-67588094D01*
X83267380Y-67588094D02*
X83267380Y-67207142D01*
X83267380Y-67207142D02*
X83315000Y-67111904D01*
X83315000Y-67111904D02*
X83362619Y-67064285D01*
X83362619Y-67064285D02*
X83457857Y-67016666D01*
X83457857Y-67016666D02*
X83600714Y-67016666D01*
X83600714Y-67016666D02*
X83695952Y-67064285D01*
X83695952Y-67064285D02*
X83743571Y-67111904D01*
X83743571Y-67111904D02*
X83791190Y-67207142D01*
X83791190Y-67207142D02*
X83791190Y-67588094D01*
X83600714Y-66159523D02*
X84267380Y-66159523D01*
X83219761Y-66397618D02*
X83934047Y-66635713D01*
X83934047Y-66635713D02*
X83934047Y-66016666D01*
%TO.C,R3*%
X87867380Y-67016666D02*
X87391190Y-67349999D01*
X87867380Y-67588094D02*
X86867380Y-67588094D01*
X86867380Y-67588094D02*
X86867380Y-67207142D01*
X86867380Y-67207142D02*
X86915000Y-67111904D01*
X86915000Y-67111904D02*
X86962619Y-67064285D01*
X86962619Y-67064285D02*
X87057857Y-67016666D01*
X87057857Y-67016666D02*
X87200714Y-67016666D01*
X87200714Y-67016666D02*
X87295952Y-67064285D01*
X87295952Y-67064285D02*
X87343571Y-67111904D01*
X87343571Y-67111904D02*
X87391190Y-67207142D01*
X87391190Y-67207142D02*
X87391190Y-67588094D01*
X86867380Y-66683332D02*
X86867380Y-66064285D01*
X86867380Y-66064285D02*
X87248333Y-66397618D01*
X87248333Y-66397618D02*
X87248333Y-66254761D01*
X87248333Y-66254761D02*
X87295952Y-66159523D01*
X87295952Y-66159523D02*
X87343571Y-66111904D01*
X87343571Y-66111904D02*
X87438809Y-66064285D01*
X87438809Y-66064285D02*
X87676904Y-66064285D01*
X87676904Y-66064285D02*
X87772142Y-66111904D01*
X87772142Y-66111904D02*
X87819761Y-66159523D01*
X87819761Y-66159523D02*
X87867380Y-66254761D01*
X87867380Y-66254761D02*
X87867380Y-66540475D01*
X87867380Y-66540475D02*
X87819761Y-66635713D01*
X87819761Y-66635713D02*
X87772142Y-66683332D01*
%TO.C,R2*%
X86067380Y-67016666D02*
X85591190Y-67349999D01*
X86067380Y-67588094D02*
X85067380Y-67588094D01*
X85067380Y-67588094D02*
X85067380Y-67207142D01*
X85067380Y-67207142D02*
X85115000Y-67111904D01*
X85115000Y-67111904D02*
X85162619Y-67064285D01*
X85162619Y-67064285D02*
X85257857Y-67016666D01*
X85257857Y-67016666D02*
X85400714Y-67016666D01*
X85400714Y-67016666D02*
X85495952Y-67064285D01*
X85495952Y-67064285D02*
X85543571Y-67111904D01*
X85543571Y-67111904D02*
X85591190Y-67207142D01*
X85591190Y-67207142D02*
X85591190Y-67588094D01*
X85162619Y-66635713D02*
X85115000Y-66588094D01*
X85115000Y-66588094D02*
X85067380Y-66492856D01*
X85067380Y-66492856D02*
X85067380Y-66254761D01*
X85067380Y-66254761D02*
X85115000Y-66159523D01*
X85115000Y-66159523D02*
X85162619Y-66111904D01*
X85162619Y-66111904D02*
X85257857Y-66064285D01*
X85257857Y-66064285D02*
X85353095Y-66064285D01*
X85353095Y-66064285D02*
X85495952Y-66111904D01*
X85495952Y-66111904D02*
X86067380Y-66683332D01*
X86067380Y-66683332D02*
X86067380Y-66064285D01*
D11*
%TO.C,J2*%
X110940000Y-61590000D02*
X112050000Y-61590000D01*
X110940000Y-62350000D02*
X110940000Y-61590000D01*
X110940000Y-63110000D02*
X110940000Y-65585000D01*
X110940000Y-63110000D02*
X111486529Y-63110000D01*
X110940000Y-65585000D02*
X111742470Y-65585000D01*
X112357530Y-65585000D02*
X113160000Y-65585000D01*
X112613471Y-63110000D02*
X113160000Y-63110000D01*
X113160000Y-63110000D02*
X113160000Y-65585000D01*
%TO.C,R6*%
X99277500Y-66187742D02*
X99277500Y-66662258D01*
X100322500Y-66187742D02*
X100322500Y-66662258D01*
%TO.C,C1*%
X96865580Y-61610000D02*
X96584420Y-61610000D01*
X96865580Y-60590000D02*
X96584420Y-60590000D01*
%TO.C,R5*%
X101477500Y-61287742D02*
X101477500Y-61762258D01*
X102522500Y-61287742D02*
X102522500Y-61762258D01*
%TO.C,R7*%
X102522500Y-65012258D02*
X102522500Y-64537742D01*
X101477500Y-65012258D02*
X101477500Y-64537742D01*
%TO.C,R1*%
X92562258Y-61622500D02*
X92087742Y-61622500D01*
X92562258Y-60577500D02*
X92087742Y-60577500D01*
%TO.C,J3*%
X54110000Y-72760000D02*
X53000000Y-72760000D01*
X54110000Y-72000000D02*
X54110000Y-72760000D01*
X54110000Y-71240000D02*
X54110000Y-70035000D01*
X54110000Y-71240000D02*
X53563471Y-71240000D01*
X54110000Y-70035000D02*
X53307530Y-70035000D01*
X52692470Y-70035000D02*
X51890000Y-70035000D01*
X52436529Y-71240000D02*
X51890000Y-71240000D01*
X51890000Y-71240000D02*
X51890000Y-70035000D01*
%TO.C,U2*%
X94525000Y-62345000D02*
X91075000Y-62345000D01*
X94525000Y-62345000D02*
X96475000Y-62345000D01*
X94525000Y-67465000D02*
X92575000Y-67465000D01*
X94525000Y-67465000D02*
X96475000Y-67465000D01*
%TO.C,J1*%
X51890000Y-52240000D02*
X53000000Y-52240000D01*
X51890000Y-53000000D02*
X51890000Y-52240000D01*
X51890000Y-53760000D02*
X51890000Y-56235000D01*
X51890000Y-53760000D02*
X52436529Y-53760000D01*
X51890000Y-56235000D02*
X52692470Y-56235000D01*
X53307530Y-56235000D02*
X54110000Y-56235000D01*
X53563471Y-53760000D02*
X54110000Y-53760000D01*
X54110000Y-53760000D02*
X54110000Y-56235000D01*
%TO.C,R4*%
X84322500Y-63847742D02*
X84322500Y-64322258D01*
X83277500Y-63847742D02*
X83277500Y-64322258D01*
%TO.C,R3*%
X87822500Y-63847742D02*
X87822500Y-64322258D01*
X86777500Y-63847742D02*
X86777500Y-64322258D01*
%TO.C,R2*%
X86072500Y-63847742D02*
X86072500Y-64322258D01*
X85027500Y-63847742D02*
X85027500Y-64322258D01*
%TD*%
M02*
