%TF.GenerationSoftware,KiCad,Pcbnew,7.0.0-da2b9df05c~163~ubuntu22.04.1*%
%TF.CreationDate,2023-03-09T00:12:33+01:00*%
%TF.ProjectId,Boite,426f6974-652e-46b6-9963-61645f706362,rev?*%
%TF.SameCoordinates,Original*%
%TF.FileFunction,Copper,L2,Bot*%
%TF.FilePolarity,Positive*%
%FSLAX46Y46*%
G04 Gerber Fmt 4.6, Leading zero omitted, Abs format (unit mm)*
G04 Created by KiCad (PCBNEW 7.0.0-da2b9df05c~163~ubuntu22.04.1) date 2023-03-09 00:12:33*
%MOMM*%
%LPD*%
G01*
G04 APERTURE LIST*
%TA.AperFunction,ComponentPad*%
%ADD10C,3.800000*%
%TD*%
%TA.AperFunction,ComponentPad*%
%ADD11R,1.000000X1.000000*%
%TD*%
%TA.AperFunction,ComponentPad*%
%ADD12O,1.000000X1.000000*%
%TD*%
%TA.AperFunction,ComponentPad*%
%ADD13R,1.600000X1.600000*%
%TD*%
%TA.AperFunction,ComponentPad*%
%ADD14O,1.600000X1.600000*%
%TD*%
%TA.AperFunction,ViaPad*%
%ADD15C,0.800000*%
%TD*%
%TA.AperFunction,ViaPad*%
%ADD16C,1.000000*%
%TD*%
%TA.AperFunction,Conductor*%
%ADD17C,0.800000*%
%TD*%
G04 APERTURE END LIST*
D10*
%TO.P,REF\u002A\u002A,1*%
%TO.N,N/C*%
X111000000Y-71000000D03*
%TD*%
%TO.P,REF\u002A\u002A,1*%
%TO.N,N/C*%
X111000000Y-54000000D03*
%TD*%
%TO.P,REF\u002A\u002A,1*%
%TO.N,N/C*%
X53400000Y-61800000D03*
%TD*%
D11*
%TO.P,J2,1,Pin_1*%
%TO.N,Net-(J2-Pad1)*%
X112049999Y-62349999D03*
D12*
%TO.P,J2,2,Pin_2*%
%TO.N,Net-(J2-Pad2)*%
X112049999Y-63619999D03*
%TO.P,J2,3,Pin_3*%
%TO.N,Earth*%
X112049999Y-64889999D03*
%TD*%
D11*
%TO.P,J3,1,Pin_1*%
%TO.N,Earth*%
X52999999Y-71999999D03*
D12*
%TO.P,J3,2,Pin_2*%
%TO.N,VCC*%
X52999999Y-70729999D03*
%TD*%
D11*
%TO.P,J1,1,Pin_1*%
%TO.N,Earth*%
X52999999Y-52999999D03*
D12*
%TO.P,J1,2,Pin_2*%
%TO.N,Net-(A3-Pad6)*%
X52999999Y-54269999D03*
%TO.P,J1,3,Pin_3*%
%TO.N,VCC*%
X52999999Y-55539999D03*
%TD*%
D13*
%TO.P,A3,1,D1/TX*%
%TO.N,unconnected-(A3-Pad1)*%
X59919999Y-55759999D03*
D14*
%TO.P,A3,2,D0/RX*%
%TO.N,Net-(A3-Pad2)*%
X62459999Y-55759999D03*
%TO.P,A3,3,~{RESET}*%
%TO.N,unconnected-(A3-Pad3)*%
X64999999Y-55759999D03*
%TO.P,A3,4,GND*%
%TO.N,Earth*%
X67539999Y-55759999D03*
%TO.P,A3,5,D2*%
%TO.N,unconnected-(A3-Pad5)*%
X70079999Y-55759999D03*
%TO.P,A3,6,D3*%
%TO.N,Net-(A3-Pad6)*%
X72619999Y-55759999D03*
%TO.P,A3,7,D4*%
%TO.N,unconnected-(A3-Pad7)*%
X75159999Y-55759999D03*
%TO.P,A3,8,D5*%
%TO.N,unconnected-(A3-Pad8)*%
X77699999Y-55759999D03*
%TO.P,A3,9,D6*%
%TO.N,unconnected-(A3-Pad9)*%
X80239999Y-55759999D03*
%TO.P,A3,10,D7*%
%TO.N,unconnected-(A3-Pad10)*%
X82779999Y-55759999D03*
%TO.P,A3,11,D8*%
%TO.N,unconnected-(A3-Pad11)*%
X85319999Y-55759999D03*
%TO.P,A3,12,D9*%
%TO.N,unconnected-(A3-Pad12)*%
X87859999Y-55759999D03*
%TO.P,A3,13,D10*%
%TO.N,unconnected-(A3-Pad13)*%
X90399999Y-55759999D03*
%TO.P,A3,14,D11*%
%TO.N,unconnected-(A3-Pad14)*%
X92939999Y-55759999D03*
%TO.P,A3,15,D12*%
%TO.N,unconnected-(A3-Pad15)*%
X95479999Y-55759999D03*
%TO.P,A3,16,D13*%
%TO.N,unconnected-(A3-Pad16)*%
X95479999Y-70999999D03*
%TO.P,A3,17,3V3*%
%TO.N,unconnected-(A3-Pad17)*%
X92939999Y-70999999D03*
%TO.P,A3,18,AREF*%
%TO.N,unconnected-(A3-Pad18)*%
X90399999Y-70999999D03*
%TO.P,A3,19,A0*%
%TO.N,unconnected-(A3-Pad19)*%
X87859999Y-70999999D03*
%TO.P,A3,20,A1*%
%TO.N,unconnected-(A3-Pad20)*%
X85319999Y-70999999D03*
%TO.P,A3,21,A2*%
%TO.N,unconnected-(A3-Pad21)*%
X82779999Y-70999999D03*
%TO.P,A3,22,A3*%
%TO.N,unconnected-(A3-Pad22)*%
X80239999Y-70999999D03*
%TO.P,A3,23,A4*%
%TO.N,unconnected-(A3-Pad23)*%
X77699999Y-70999999D03*
%TO.P,A3,24,A5*%
%TO.N,unconnected-(A3-Pad24)*%
X75159999Y-70999999D03*
%TO.P,A3,25,A6*%
%TO.N,unconnected-(A3-Pad25)*%
X72619999Y-70999999D03*
%TO.P,A3,26,A7*%
%TO.N,unconnected-(A3-Pad26)*%
X70079999Y-70999999D03*
%TO.P,A3,27,+5V*%
%TO.N,unconnected-(A3-Pad27)*%
X67539999Y-70999999D03*
%TO.P,A3,28,~{RESET}*%
%TO.N,unconnected-(A3-Pad28)*%
X64999999Y-70999999D03*
%TO.P,A3,29,GND*%
%TO.N,unconnected-(A3-Pad29)*%
X62459999Y-70999999D03*
%TO.P,A3,30,VIN*%
%TO.N,VCC*%
X59919999Y-70999999D03*
%TD*%
D15*
%TO.N,Net-(A3-Pad2)*%
X90200000Y-61000000D03*
%TO.N,VCC*%
X101000000Y-67200000D03*
X99900000Y-62200000D03*
D16*
%TO.N,Earth*%
X102000000Y-59800000D03*
X89400000Y-65800000D03*
X97000000Y-67800000D03*
X97500000Y-60049500D03*
%TD*%
D17*
%TO.N,Net-(A3-Pad2)*%
X90200000Y-61000000D02*
X88000000Y-61000000D01*
X88000000Y-61000000D02*
X85850000Y-58850000D01*
X85850000Y-58850000D02*
X65550000Y-58850000D01*
X65550000Y-58850000D02*
X62460000Y-55760000D01*
%TO.N,VCC*%
X101000000Y-67200000D02*
X101000000Y-63300000D01*
X101000000Y-63300000D02*
X99900000Y-62200000D01*
%TD*%
%TA.AperFunction,Conductor*%
%TO.N,Earth*%
G36*
X114437000Y-50516881D02*
G01*
X114483119Y-50563000D01*
X114500000Y-50626000D01*
X114500000Y-74374000D01*
X114483119Y-74437000D01*
X114437000Y-74483119D01*
X114374000Y-74500000D01*
X50626000Y-74500000D01*
X50563000Y-74483119D01*
X50516881Y-74437000D01*
X50500000Y-74374000D01*
X50500000Y-72545223D01*
X51992000Y-72545223D01*
X51992359Y-72551938D01*
X51997662Y-72601257D01*
X52001259Y-72616478D01*
X52046405Y-72737519D01*
X52054954Y-72753175D01*
X52131697Y-72855692D01*
X52144307Y-72868302D01*
X52246824Y-72945045D01*
X52262480Y-72953594D01*
X52383521Y-72998740D01*
X52398742Y-73002337D01*
X52448061Y-73007640D01*
X52454777Y-73008000D01*
X52729410Y-73008000D01*
X52742493Y-73004493D01*
X52746000Y-72991410D01*
X53254000Y-72991410D01*
X53257506Y-73004493D01*
X53270590Y-73008000D01*
X53545223Y-73008000D01*
X53551938Y-73007640D01*
X53601257Y-73002337D01*
X53616478Y-72998740D01*
X53737519Y-72953594D01*
X53753175Y-72945045D01*
X53855692Y-72868302D01*
X53868302Y-72855692D01*
X53945045Y-72753175D01*
X53953594Y-72737519D01*
X53998740Y-72616478D01*
X54002337Y-72601257D01*
X54007640Y-72551938D01*
X54008000Y-72545223D01*
X54008000Y-72270590D01*
X54004493Y-72257506D01*
X53991410Y-72254000D01*
X53270590Y-72254000D01*
X53257506Y-72257506D01*
X53254000Y-72270590D01*
X53254000Y-72991410D01*
X52746000Y-72991410D01*
X52746000Y-72270590D01*
X52742493Y-72257506D01*
X52729410Y-72254000D01*
X52008590Y-72254000D01*
X51995506Y-72257506D01*
X51992000Y-72270590D01*
X51992000Y-72545223D01*
X50500000Y-72545223D01*
X50500000Y-70730000D01*
X51986620Y-70730000D01*
X51987227Y-70736163D01*
X52005484Y-70921538D01*
X52005485Y-70921547D01*
X52006092Y-70927701D01*
X52007887Y-70933619D01*
X52007888Y-70933623D01*
X52029224Y-71003958D01*
X52063759Y-71117804D01*
X52066678Y-71123266D01*
X52067991Y-71126434D01*
X52076602Y-71190354D01*
X52057407Y-71237896D01*
X52059273Y-71238915D01*
X52046404Y-71262482D01*
X52001259Y-71383521D01*
X51997662Y-71398742D01*
X51992359Y-71448061D01*
X51992000Y-71454777D01*
X51992000Y-71729410D01*
X51995506Y-71742493D01*
X52008590Y-71746000D01*
X53991410Y-71746000D01*
X54004493Y-71742493D01*
X54008000Y-71729410D01*
X54008000Y-71454777D01*
X54007640Y-71448061D01*
X54002337Y-71398742D01*
X53998740Y-71383521D01*
X53953594Y-71262480D01*
X53940727Y-71238915D01*
X53942593Y-71237895D01*
X53923398Y-71190361D01*
X53932008Y-71126437D01*
X53933320Y-71123267D01*
X53936241Y-71117804D01*
X53971976Y-71000000D01*
X58606502Y-71000000D01*
X58606981Y-71005475D01*
X58623155Y-71190354D01*
X58626457Y-71228087D01*
X58685716Y-71449243D01*
X58688038Y-71454223D01*
X58688039Y-71454225D01*
X58743236Y-71572595D01*
X58782477Y-71656749D01*
X58785630Y-71661252D01*
X58785633Y-71661257D01*
X58789123Y-71666241D01*
X58913802Y-71844300D01*
X59075700Y-72006198D01*
X59263251Y-72137523D01*
X59470757Y-72234284D01*
X59691913Y-72293543D01*
X59920000Y-72313498D01*
X60148087Y-72293543D01*
X60369243Y-72234284D01*
X60576749Y-72137523D01*
X60764300Y-72006198D01*
X60926198Y-71844300D01*
X61057523Y-71656749D01*
X61075804Y-71617543D01*
X61122300Y-71564525D01*
X61190000Y-71544792D01*
X61257700Y-71564525D01*
X61304195Y-71617543D01*
X61320149Y-71651758D01*
X61320151Y-71651761D01*
X61322477Y-71656749D01*
X61325630Y-71661252D01*
X61325633Y-71661257D01*
X61329123Y-71666241D01*
X61453802Y-71844300D01*
X61615700Y-72006198D01*
X61803251Y-72137523D01*
X62010757Y-72234284D01*
X62231913Y-72293543D01*
X62460000Y-72313498D01*
X62688087Y-72293543D01*
X62909243Y-72234284D01*
X63116749Y-72137523D01*
X63304300Y-72006198D01*
X63466198Y-71844300D01*
X63597523Y-71656749D01*
X63615804Y-71617543D01*
X63662300Y-71564525D01*
X63730000Y-71544792D01*
X63797700Y-71564525D01*
X63844195Y-71617543D01*
X63860149Y-71651758D01*
X63860151Y-71651761D01*
X63862477Y-71656749D01*
X63865630Y-71661252D01*
X63865633Y-71661257D01*
X63869123Y-71666241D01*
X63993802Y-71844300D01*
X64155700Y-72006198D01*
X64343251Y-72137523D01*
X64550757Y-72234284D01*
X64771913Y-72293543D01*
X65000000Y-72313498D01*
X65228087Y-72293543D01*
X65449243Y-72234284D01*
X65656749Y-72137523D01*
X65844300Y-72006198D01*
X66006198Y-71844300D01*
X66137523Y-71656749D01*
X66155804Y-71617543D01*
X66202300Y-71564525D01*
X66270000Y-71544792D01*
X66337700Y-71564525D01*
X66384195Y-71617543D01*
X66400149Y-71651758D01*
X66400151Y-71651761D01*
X66402477Y-71656749D01*
X66405630Y-71661252D01*
X66405633Y-71661257D01*
X66409123Y-71666241D01*
X66533802Y-71844300D01*
X66695700Y-72006198D01*
X66883251Y-72137523D01*
X67090757Y-72234284D01*
X67311913Y-72293543D01*
X67540000Y-72313498D01*
X67768087Y-72293543D01*
X67989243Y-72234284D01*
X68196749Y-72137523D01*
X68384300Y-72006198D01*
X68546198Y-71844300D01*
X68677523Y-71656749D01*
X68695804Y-71617543D01*
X68742300Y-71564525D01*
X68810000Y-71544792D01*
X68877700Y-71564525D01*
X68924195Y-71617543D01*
X68940149Y-71651758D01*
X68940151Y-71651761D01*
X68942477Y-71656749D01*
X68945630Y-71661252D01*
X68945633Y-71661257D01*
X68949123Y-71666241D01*
X69073802Y-71844300D01*
X69235700Y-72006198D01*
X69423251Y-72137523D01*
X69630757Y-72234284D01*
X69851913Y-72293543D01*
X70080000Y-72313498D01*
X70308087Y-72293543D01*
X70529243Y-72234284D01*
X70736749Y-72137523D01*
X70924300Y-72006198D01*
X71086198Y-71844300D01*
X71217523Y-71656749D01*
X71235804Y-71617543D01*
X71282300Y-71564525D01*
X71350000Y-71544792D01*
X71417700Y-71564525D01*
X71464195Y-71617543D01*
X71480149Y-71651758D01*
X71480151Y-71651761D01*
X71482477Y-71656749D01*
X71485630Y-71661252D01*
X71485633Y-71661257D01*
X71489123Y-71666241D01*
X71613802Y-71844300D01*
X71775700Y-72006198D01*
X71963251Y-72137523D01*
X72170757Y-72234284D01*
X72391913Y-72293543D01*
X72620000Y-72313498D01*
X72848087Y-72293543D01*
X73069243Y-72234284D01*
X73276749Y-72137523D01*
X73464300Y-72006198D01*
X73626198Y-71844300D01*
X73757523Y-71656749D01*
X73775804Y-71617543D01*
X73822300Y-71564525D01*
X73890000Y-71544792D01*
X73957700Y-71564525D01*
X74004195Y-71617543D01*
X74020149Y-71651758D01*
X74020151Y-71651761D01*
X74022477Y-71656749D01*
X74025630Y-71661252D01*
X74025633Y-71661257D01*
X74029123Y-71666241D01*
X74153802Y-71844300D01*
X74315700Y-72006198D01*
X74503251Y-72137523D01*
X74710757Y-72234284D01*
X74931913Y-72293543D01*
X75160000Y-72313498D01*
X75388087Y-72293543D01*
X75609243Y-72234284D01*
X75816749Y-72137523D01*
X76004300Y-72006198D01*
X76166198Y-71844300D01*
X76297523Y-71656749D01*
X76315804Y-71617543D01*
X76362300Y-71564525D01*
X76430000Y-71544792D01*
X76497700Y-71564525D01*
X76544195Y-71617543D01*
X76560149Y-71651758D01*
X76560151Y-71651761D01*
X76562477Y-71656749D01*
X76565630Y-71661252D01*
X76565633Y-71661257D01*
X76569123Y-71666241D01*
X76693802Y-71844300D01*
X76855700Y-72006198D01*
X77043251Y-72137523D01*
X77250757Y-72234284D01*
X77471913Y-72293543D01*
X77700000Y-72313498D01*
X77928087Y-72293543D01*
X78149243Y-72234284D01*
X78356749Y-72137523D01*
X78544300Y-72006198D01*
X78706198Y-71844300D01*
X78837523Y-71656749D01*
X78855804Y-71617543D01*
X78902300Y-71564525D01*
X78970000Y-71544792D01*
X79037700Y-71564525D01*
X79084195Y-71617543D01*
X79100149Y-71651758D01*
X79100151Y-71651761D01*
X79102477Y-71656749D01*
X79105630Y-71661252D01*
X79105633Y-71661257D01*
X79109123Y-71666241D01*
X79233802Y-71844300D01*
X79395700Y-72006198D01*
X79583251Y-72137523D01*
X79790757Y-72234284D01*
X80011913Y-72293543D01*
X80240000Y-72313498D01*
X80468087Y-72293543D01*
X80689243Y-72234284D01*
X80896749Y-72137523D01*
X81084300Y-72006198D01*
X81246198Y-71844300D01*
X81377523Y-71656749D01*
X81395804Y-71617543D01*
X81442300Y-71564525D01*
X81510000Y-71544792D01*
X81577700Y-71564525D01*
X81624195Y-71617543D01*
X81640149Y-71651758D01*
X81640151Y-71651761D01*
X81642477Y-71656749D01*
X81645630Y-71661252D01*
X81645633Y-71661257D01*
X81649123Y-71666241D01*
X81773802Y-71844300D01*
X81935700Y-72006198D01*
X82123251Y-72137523D01*
X82330757Y-72234284D01*
X82551913Y-72293543D01*
X82780000Y-72313498D01*
X83008087Y-72293543D01*
X83229243Y-72234284D01*
X83436749Y-72137523D01*
X83624300Y-72006198D01*
X83786198Y-71844300D01*
X83917523Y-71656749D01*
X83935804Y-71617543D01*
X83982300Y-71564525D01*
X84050000Y-71544792D01*
X84117700Y-71564525D01*
X84164195Y-71617543D01*
X84180149Y-71651758D01*
X84180151Y-71651761D01*
X84182477Y-71656749D01*
X84185630Y-71661252D01*
X84185633Y-71661257D01*
X84189123Y-71666241D01*
X84313802Y-71844300D01*
X84475700Y-72006198D01*
X84663251Y-72137523D01*
X84870757Y-72234284D01*
X85091913Y-72293543D01*
X85320000Y-72313498D01*
X85548087Y-72293543D01*
X85769243Y-72234284D01*
X85976749Y-72137523D01*
X86164300Y-72006198D01*
X86326198Y-71844300D01*
X86457523Y-71656749D01*
X86475804Y-71617543D01*
X86522300Y-71564525D01*
X86590000Y-71544792D01*
X86657700Y-71564525D01*
X86704195Y-71617543D01*
X86720149Y-71651758D01*
X86720151Y-71651761D01*
X86722477Y-71656749D01*
X86725630Y-71661252D01*
X86725633Y-71661257D01*
X86729123Y-71666241D01*
X86853802Y-71844300D01*
X87015700Y-72006198D01*
X87203251Y-72137523D01*
X87410757Y-72234284D01*
X87631913Y-72293543D01*
X87860000Y-72313498D01*
X88088087Y-72293543D01*
X88309243Y-72234284D01*
X88516749Y-72137523D01*
X88704300Y-72006198D01*
X88866198Y-71844300D01*
X88997523Y-71656749D01*
X89015804Y-71617543D01*
X89062300Y-71564525D01*
X89130000Y-71544792D01*
X89197700Y-71564525D01*
X89244195Y-71617543D01*
X89260149Y-71651758D01*
X89260151Y-71651761D01*
X89262477Y-71656749D01*
X89265630Y-71661252D01*
X89265633Y-71661257D01*
X89269123Y-71666241D01*
X89393802Y-71844300D01*
X89555700Y-72006198D01*
X89743251Y-72137523D01*
X89950757Y-72234284D01*
X90171913Y-72293543D01*
X90400000Y-72313498D01*
X90628087Y-72293543D01*
X90849243Y-72234284D01*
X91056749Y-72137523D01*
X91244300Y-72006198D01*
X91406198Y-71844300D01*
X91537523Y-71656749D01*
X91555804Y-71617543D01*
X91602300Y-71564525D01*
X91670000Y-71544792D01*
X91737700Y-71564525D01*
X91784195Y-71617543D01*
X91800149Y-71651758D01*
X91800151Y-71651761D01*
X91802477Y-71656749D01*
X91805630Y-71661252D01*
X91805633Y-71661257D01*
X91809123Y-71666241D01*
X91933802Y-71844300D01*
X92095700Y-72006198D01*
X92283251Y-72137523D01*
X92490757Y-72234284D01*
X92711913Y-72293543D01*
X92940000Y-72313498D01*
X93168087Y-72293543D01*
X93389243Y-72234284D01*
X93596749Y-72137523D01*
X93784300Y-72006198D01*
X93946198Y-71844300D01*
X94077523Y-71656749D01*
X94095804Y-71617543D01*
X94142300Y-71564525D01*
X94210000Y-71544792D01*
X94277700Y-71564525D01*
X94324195Y-71617543D01*
X94340149Y-71651758D01*
X94340151Y-71651761D01*
X94342477Y-71656749D01*
X94345630Y-71661252D01*
X94345633Y-71661257D01*
X94349123Y-71666241D01*
X94473802Y-71844300D01*
X94635700Y-72006198D01*
X94823251Y-72137523D01*
X95030757Y-72234284D01*
X95251913Y-72293543D01*
X95480000Y-72313498D01*
X95708087Y-72293543D01*
X95929243Y-72234284D01*
X96136749Y-72137523D01*
X96324300Y-72006198D01*
X96486198Y-71844300D01*
X96617523Y-71656749D01*
X96714284Y-71449243D01*
X96773543Y-71228087D01*
X96793498Y-71000000D01*
X108586738Y-71000000D01*
X108586987Y-71003958D01*
X108605517Y-71298499D01*
X108605518Y-71298509D01*
X108605767Y-71302462D01*
X108606508Y-71306350D01*
X108606510Y-71306360D01*
X108661810Y-71596253D01*
X108661813Y-71596265D01*
X108662555Y-71600154D01*
X108663777Y-71603916D01*
X108663781Y-71603930D01*
X108709092Y-71743380D01*
X108756206Y-71888381D01*
X108885242Y-72162598D01*
X108931638Y-72235706D01*
X109045507Y-72415136D01*
X109045513Y-72415145D01*
X109047630Y-72418480D01*
X109240808Y-72651992D01*
X109461729Y-72859450D01*
X109464933Y-72861777D01*
X109464932Y-72861777D01*
X109665695Y-73007640D01*
X109706910Y-73037584D01*
X109972483Y-73183585D01*
X110254261Y-73295149D01*
X110547800Y-73370516D01*
X110848470Y-73408500D01*
X111147571Y-73408500D01*
X111151530Y-73408500D01*
X111452200Y-73370516D01*
X111745739Y-73295149D01*
X112027517Y-73183585D01*
X112293090Y-73037584D01*
X112538271Y-72859450D01*
X112759192Y-72651992D01*
X112952370Y-72418480D01*
X113114758Y-72162598D01*
X113243794Y-71888381D01*
X113337445Y-71600154D01*
X113394233Y-71302462D01*
X113413262Y-71000000D01*
X113394233Y-70697538D01*
X113337445Y-70399846D01*
X113320676Y-70348238D01*
X113311279Y-70319318D01*
X113243794Y-70111619D01*
X113114758Y-69837402D01*
X112952370Y-69581520D01*
X112759192Y-69348008D01*
X112538271Y-69140550D01*
X112535067Y-69138222D01*
X112296292Y-68964742D01*
X112296287Y-68964739D01*
X112293090Y-68962416D01*
X112289618Y-68960507D01*
X112030985Y-68818321D01*
X112030977Y-68818317D01*
X112027517Y-68816415D01*
X112008950Y-68809063D01*
X111749408Y-68706303D01*
X111749398Y-68706299D01*
X111745739Y-68704851D01*
X111720300Y-68698319D01*
X111456035Y-68630468D01*
X111456025Y-68630466D01*
X111452200Y-68629484D01*
X111448275Y-68628988D01*
X111448264Y-68628986D01*
X111155461Y-68591996D01*
X111155451Y-68591995D01*
X111151530Y-68591500D01*
X110848470Y-68591500D01*
X110844549Y-68591995D01*
X110844538Y-68591996D01*
X110551735Y-68628986D01*
X110551721Y-68628988D01*
X110547800Y-68629484D01*
X110543977Y-68630465D01*
X110543964Y-68630468D01*
X110258081Y-68703870D01*
X110258078Y-68703870D01*
X110254261Y-68704851D01*
X110250605Y-68706298D01*
X110250591Y-68706303D01*
X109976157Y-68814960D01*
X109976152Y-68814962D01*
X109972483Y-68816415D01*
X109969028Y-68818314D01*
X109969014Y-68818321D01*
X109710381Y-68960507D01*
X109710371Y-68960512D01*
X109706910Y-68962416D01*
X109703719Y-68964734D01*
X109703707Y-68964742D01*
X109464932Y-69138222D01*
X109464923Y-69138229D01*
X109461729Y-69140550D01*
X109458851Y-69143252D01*
X109458842Y-69143260D01*
X109243694Y-69345297D01*
X109243687Y-69345304D01*
X109240808Y-69348008D01*
X109238291Y-69351050D01*
X109238283Y-69351059D01*
X109050152Y-69578470D01*
X109050143Y-69578481D01*
X109047630Y-69581520D01*
X109045518Y-69584847D01*
X109045507Y-69584863D01*
X108911086Y-69796678D01*
X108885242Y-69837402D01*
X108883557Y-69840980D01*
X108883554Y-69840988D01*
X108757895Y-70108028D01*
X108757890Y-70108038D01*
X108756206Y-70111619D01*
X108754982Y-70115385D01*
X108754980Y-70115391D01*
X108663781Y-70396069D01*
X108663776Y-70396086D01*
X108662555Y-70399846D01*
X108661814Y-70403730D01*
X108661810Y-70403746D01*
X108606510Y-70693639D01*
X108606508Y-70693651D01*
X108605767Y-70697538D01*
X108605518Y-70701488D01*
X108605517Y-70701500D01*
X108590914Y-70933623D01*
X108586738Y-71000000D01*
X96793498Y-71000000D01*
X96773543Y-70771913D01*
X96714284Y-70550757D01*
X96617523Y-70343251D01*
X96486198Y-70155700D01*
X96324300Y-69993802D01*
X96172350Y-69887405D01*
X96141257Y-69865633D01*
X96141252Y-69865630D01*
X96136749Y-69862477D01*
X96131761Y-69860151D01*
X95934225Y-69768039D01*
X95934223Y-69768038D01*
X95929243Y-69765716D01*
X95708087Y-69706457D01*
X95702611Y-69705977D01*
X95702606Y-69705977D01*
X95485475Y-69686981D01*
X95480000Y-69686502D01*
X95474525Y-69686981D01*
X95257393Y-69705977D01*
X95257386Y-69705978D01*
X95251913Y-69706457D01*
X95246599Y-69707880D01*
X95246598Y-69707881D01*
X95036067Y-69764293D01*
X95036065Y-69764293D01*
X95030757Y-69765716D01*
X95025779Y-69768036D01*
X95025774Y-69768039D01*
X94828238Y-69860151D01*
X94828233Y-69860153D01*
X94823251Y-69862477D01*
X94818752Y-69865627D01*
X94818742Y-69865633D01*
X94640211Y-69990643D01*
X94640208Y-69990645D01*
X94635700Y-69993802D01*
X94631808Y-69997693D01*
X94631802Y-69997699D01*
X94477699Y-70151802D01*
X94477693Y-70151808D01*
X94473802Y-70155700D01*
X94470645Y-70160208D01*
X94470643Y-70160211D01*
X94345633Y-70338742D01*
X94345627Y-70338752D01*
X94342477Y-70343251D01*
X94340153Y-70348233D01*
X94340151Y-70348238D01*
X94324195Y-70382457D01*
X94277700Y-70435474D01*
X94210000Y-70455207D01*
X94142300Y-70435474D01*
X94095805Y-70382457D01*
X94079849Y-70348240D01*
X94077523Y-70343251D01*
X93946198Y-70155700D01*
X93784300Y-69993802D01*
X93632350Y-69887405D01*
X93601257Y-69865633D01*
X93601252Y-69865630D01*
X93596749Y-69862477D01*
X93591761Y-69860151D01*
X93394225Y-69768039D01*
X93394223Y-69768038D01*
X93389243Y-69765716D01*
X93168087Y-69706457D01*
X93162611Y-69705977D01*
X93162606Y-69705977D01*
X92945475Y-69686981D01*
X92940000Y-69686502D01*
X92934525Y-69686981D01*
X92717393Y-69705977D01*
X92717386Y-69705978D01*
X92711913Y-69706457D01*
X92706599Y-69707880D01*
X92706598Y-69707881D01*
X92496067Y-69764293D01*
X92496065Y-69764293D01*
X92490757Y-69765716D01*
X92485779Y-69768036D01*
X92485774Y-69768039D01*
X92288238Y-69860151D01*
X92288233Y-69860153D01*
X92283251Y-69862477D01*
X92278752Y-69865627D01*
X92278742Y-69865633D01*
X92100211Y-69990643D01*
X92100208Y-69990645D01*
X92095700Y-69993802D01*
X92091808Y-69997693D01*
X92091802Y-69997699D01*
X91937699Y-70151802D01*
X91937693Y-70151808D01*
X91933802Y-70155700D01*
X91930645Y-70160208D01*
X91930643Y-70160211D01*
X91805633Y-70338742D01*
X91805627Y-70338752D01*
X91802477Y-70343251D01*
X91800153Y-70348233D01*
X91800151Y-70348238D01*
X91784195Y-70382457D01*
X91737700Y-70435474D01*
X91670000Y-70455207D01*
X91602300Y-70435474D01*
X91555805Y-70382457D01*
X91539849Y-70348240D01*
X91537523Y-70343251D01*
X91406198Y-70155700D01*
X91244300Y-69993802D01*
X91092350Y-69887405D01*
X91061257Y-69865633D01*
X91061252Y-69865630D01*
X91056749Y-69862477D01*
X91051761Y-69860151D01*
X90854225Y-69768039D01*
X90854223Y-69768038D01*
X90849243Y-69765716D01*
X90628087Y-69706457D01*
X90622611Y-69705977D01*
X90622606Y-69705977D01*
X90405475Y-69686981D01*
X90400000Y-69686502D01*
X90394525Y-69686981D01*
X90177393Y-69705977D01*
X90177386Y-69705978D01*
X90171913Y-69706457D01*
X90166599Y-69707880D01*
X90166598Y-69707881D01*
X89956067Y-69764293D01*
X89956065Y-69764293D01*
X89950757Y-69765716D01*
X89945779Y-69768036D01*
X89945774Y-69768039D01*
X89748238Y-69860151D01*
X89748233Y-69860153D01*
X89743251Y-69862477D01*
X89738752Y-69865627D01*
X89738742Y-69865633D01*
X89560211Y-69990643D01*
X89560208Y-69990645D01*
X89555700Y-69993802D01*
X89551808Y-69997693D01*
X89551802Y-69997699D01*
X89397699Y-70151802D01*
X89397693Y-70151808D01*
X89393802Y-70155700D01*
X89390645Y-70160208D01*
X89390643Y-70160211D01*
X89265633Y-70338742D01*
X89265627Y-70338752D01*
X89262477Y-70343251D01*
X89260153Y-70348233D01*
X89260151Y-70348238D01*
X89244195Y-70382457D01*
X89197700Y-70435474D01*
X89130000Y-70455207D01*
X89062300Y-70435474D01*
X89015805Y-70382457D01*
X88999849Y-70348240D01*
X88997523Y-70343251D01*
X88866198Y-70155700D01*
X88704300Y-69993802D01*
X88552350Y-69887405D01*
X88521257Y-69865633D01*
X88521252Y-69865630D01*
X88516749Y-69862477D01*
X88511761Y-69860151D01*
X88314225Y-69768039D01*
X88314223Y-69768038D01*
X88309243Y-69765716D01*
X88088087Y-69706457D01*
X88082611Y-69705977D01*
X88082606Y-69705977D01*
X87865475Y-69686981D01*
X87860000Y-69686502D01*
X87854525Y-69686981D01*
X87637393Y-69705977D01*
X87637386Y-69705978D01*
X87631913Y-69706457D01*
X87626599Y-69707880D01*
X87626598Y-69707881D01*
X87416067Y-69764293D01*
X87416065Y-69764293D01*
X87410757Y-69765716D01*
X87405779Y-69768036D01*
X87405774Y-69768039D01*
X87208238Y-69860151D01*
X87208233Y-69860153D01*
X87203251Y-69862477D01*
X87198752Y-69865627D01*
X87198742Y-69865633D01*
X87020211Y-69990643D01*
X87020208Y-69990645D01*
X87015700Y-69993802D01*
X87011808Y-69997693D01*
X87011802Y-69997699D01*
X86857699Y-70151802D01*
X86857693Y-70151808D01*
X86853802Y-70155700D01*
X86850645Y-70160208D01*
X86850643Y-70160211D01*
X86725633Y-70338742D01*
X86725627Y-70338752D01*
X86722477Y-70343251D01*
X86720153Y-70348233D01*
X86720151Y-70348238D01*
X86704195Y-70382457D01*
X86657700Y-70435474D01*
X86590000Y-70455207D01*
X86522300Y-70435474D01*
X86475805Y-70382457D01*
X86459849Y-70348240D01*
X86457523Y-70343251D01*
X86326198Y-70155700D01*
X86164300Y-69993802D01*
X86012350Y-69887405D01*
X85981257Y-69865633D01*
X85981252Y-69865630D01*
X85976749Y-69862477D01*
X85971761Y-69860151D01*
X85774225Y-69768039D01*
X85774223Y-69768038D01*
X85769243Y-69765716D01*
X85548087Y-69706457D01*
X85542611Y-69705977D01*
X85542606Y-69705977D01*
X85325475Y-69686981D01*
X85320000Y-69686502D01*
X85314525Y-69686981D01*
X85097393Y-69705977D01*
X85097386Y-69705978D01*
X85091913Y-69706457D01*
X85086599Y-69707880D01*
X85086598Y-69707881D01*
X84876067Y-69764293D01*
X84876065Y-69764293D01*
X84870757Y-69765716D01*
X84865779Y-69768036D01*
X84865774Y-69768039D01*
X84668238Y-69860151D01*
X84668233Y-69860153D01*
X84663251Y-69862477D01*
X84658752Y-69865627D01*
X84658742Y-69865633D01*
X84480211Y-69990643D01*
X84480208Y-69990645D01*
X84475700Y-69993802D01*
X84471808Y-69997693D01*
X84471802Y-69997699D01*
X84317699Y-70151802D01*
X84317693Y-70151808D01*
X84313802Y-70155700D01*
X84310645Y-70160208D01*
X84310643Y-70160211D01*
X84185633Y-70338742D01*
X84185627Y-70338752D01*
X84182477Y-70343251D01*
X84180153Y-70348233D01*
X84180151Y-70348238D01*
X84164195Y-70382457D01*
X84117700Y-70435474D01*
X84050000Y-70455207D01*
X83982300Y-70435474D01*
X83935805Y-70382457D01*
X83919849Y-70348240D01*
X83917523Y-70343251D01*
X83786198Y-70155700D01*
X83624300Y-69993802D01*
X83472350Y-69887405D01*
X83441257Y-69865633D01*
X83441252Y-69865630D01*
X83436749Y-69862477D01*
X83431761Y-69860151D01*
X83234225Y-69768039D01*
X83234223Y-69768038D01*
X83229243Y-69765716D01*
X83008087Y-69706457D01*
X83002611Y-69705977D01*
X83002606Y-69705977D01*
X82785475Y-69686981D01*
X82780000Y-69686502D01*
X82774525Y-69686981D01*
X82557393Y-69705977D01*
X82557386Y-69705978D01*
X82551913Y-69706457D01*
X82546599Y-69707880D01*
X82546598Y-69707881D01*
X82336067Y-69764293D01*
X82336065Y-69764293D01*
X82330757Y-69765716D01*
X82325779Y-69768036D01*
X82325774Y-69768039D01*
X82128238Y-69860151D01*
X82128233Y-69860153D01*
X82123251Y-69862477D01*
X82118752Y-69865627D01*
X82118742Y-69865633D01*
X81940211Y-69990643D01*
X81940208Y-69990645D01*
X81935700Y-69993802D01*
X81931808Y-69997693D01*
X81931802Y-69997699D01*
X81777699Y-70151802D01*
X81777693Y-70151808D01*
X81773802Y-70155700D01*
X81770645Y-70160208D01*
X81770643Y-70160211D01*
X81645633Y-70338742D01*
X81645627Y-70338752D01*
X81642477Y-70343251D01*
X81640153Y-70348233D01*
X81640151Y-70348238D01*
X81624195Y-70382457D01*
X81577700Y-70435474D01*
X81510000Y-70455207D01*
X81442300Y-70435474D01*
X81395805Y-70382457D01*
X81379849Y-70348240D01*
X81377523Y-70343251D01*
X81246198Y-70155700D01*
X81084300Y-69993802D01*
X80932350Y-69887405D01*
X80901257Y-69865633D01*
X80901252Y-69865630D01*
X80896749Y-69862477D01*
X80891761Y-69860151D01*
X80694225Y-69768039D01*
X80694223Y-69768038D01*
X80689243Y-69765716D01*
X80468087Y-69706457D01*
X80462611Y-69705977D01*
X80462606Y-69705977D01*
X80245475Y-69686981D01*
X80240000Y-69686502D01*
X80234525Y-69686981D01*
X80017393Y-69705977D01*
X80017386Y-69705978D01*
X80011913Y-69706457D01*
X80006599Y-69707880D01*
X80006598Y-69707881D01*
X79796067Y-69764293D01*
X79796065Y-69764293D01*
X79790757Y-69765716D01*
X79785779Y-69768036D01*
X79785774Y-69768039D01*
X79588238Y-69860151D01*
X79588233Y-69860153D01*
X79583251Y-69862477D01*
X79578752Y-69865627D01*
X79578742Y-69865633D01*
X79400211Y-69990643D01*
X79400208Y-69990645D01*
X79395700Y-69993802D01*
X79391808Y-69997693D01*
X79391802Y-69997699D01*
X79237699Y-70151802D01*
X79237693Y-70151808D01*
X79233802Y-70155700D01*
X79230645Y-70160208D01*
X79230643Y-70160211D01*
X79105633Y-70338742D01*
X79105627Y-70338752D01*
X79102477Y-70343251D01*
X79100153Y-70348233D01*
X79100151Y-70348238D01*
X79084195Y-70382457D01*
X79037700Y-70435474D01*
X78970000Y-70455207D01*
X78902300Y-70435474D01*
X78855805Y-70382457D01*
X78839849Y-70348240D01*
X78837523Y-70343251D01*
X78706198Y-70155700D01*
X78544300Y-69993802D01*
X78392350Y-69887405D01*
X78361257Y-69865633D01*
X78361252Y-69865630D01*
X78356749Y-69862477D01*
X78351761Y-69860151D01*
X78154225Y-69768039D01*
X78154223Y-69768038D01*
X78149243Y-69765716D01*
X77928087Y-69706457D01*
X77922611Y-69705977D01*
X77922606Y-69705977D01*
X77705475Y-69686981D01*
X77700000Y-69686502D01*
X77694525Y-69686981D01*
X77477393Y-69705977D01*
X77477386Y-69705978D01*
X77471913Y-69706457D01*
X77466599Y-69707880D01*
X77466598Y-69707881D01*
X77256067Y-69764293D01*
X77256065Y-69764293D01*
X77250757Y-69765716D01*
X77245779Y-69768036D01*
X77245774Y-69768039D01*
X77048238Y-69860151D01*
X77048233Y-69860153D01*
X77043251Y-69862477D01*
X77038752Y-69865627D01*
X77038742Y-69865633D01*
X76860211Y-69990643D01*
X76860208Y-69990645D01*
X76855700Y-69993802D01*
X76851808Y-69997693D01*
X76851802Y-69997699D01*
X76697699Y-70151802D01*
X76697693Y-70151808D01*
X76693802Y-70155700D01*
X76690645Y-70160208D01*
X76690643Y-70160211D01*
X76565633Y-70338742D01*
X76565627Y-70338752D01*
X76562477Y-70343251D01*
X76560153Y-70348233D01*
X76560151Y-70348238D01*
X76544195Y-70382457D01*
X76497700Y-70435474D01*
X76430000Y-70455207D01*
X76362300Y-70435474D01*
X76315805Y-70382457D01*
X76299849Y-70348240D01*
X76297523Y-70343251D01*
X76166198Y-70155700D01*
X76004300Y-69993802D01*
X75852350Y-69887405D01*
X75821257Y-69865633D01*
X75821252Y-69865630D01*
X75816749Y-69862477D01*
X75811761Y-69860151D01*
X75614225Y-69768039D01*
X75614223Y-69768038D01*
X75609243Y-69765716D01*
X75388087Y-69706457D01*
X75382611Y-69705977D01*
X75382606Y-69705977D01*
X75165475Y-69686981D01*
X75160000Y-69686502D01*
X75154525Y-69686981D01*
X74937393Y-69705977D01*
X74937386Y-69705978D01*
X74931913Y-69706457D01*
X74926599Y-69707880D01*
X74926598Y-69707881D01*
X74716067Y-69764293D01*
X74716065Y-69764293D01*
X74710757Y-69765716D01*
X74705779Y-69768036D01*
X74705774Y-69768039D01*
X74508238Y-69860151D01*
X74508233Y-69860153D01*
X74503251Y-69862477D01*
X74498752Y-69865627D01*
X74498742Y-69865633D01*
X74320211Y-69990643D01*
X74320208Y-69990645D01*
X74315700Y-69993802D01*
X74311808Y-69997693D01*
X74311802Y-69997699D01*
X74157699Y-70151802D01*
X74157693Y-70151808D01*
X74153802Y-70155700D01*
X74150645Y-70160208D01*
X74150643Y-70160211D01*
X74025633Y-70338742D01*
X74025627Y-70338752D01*
X74022477Y-70343251D01*
X74020153Y-70348233D01*
X74020151Y-70348238D01*
X74004195Y-70382457D01*
X73957700Y-70435474D01*
X73890000Y-70455207D01*
X73822300Y-70435474D01*
X73775805Y-70382457D01*
X73759849Y-70348240D01*
X73757523Y-70343251D01*
X73626198Y-70155700D01*
X73464300Y-69993802D01*
X73312350Y-69887405D01*
X73281257Y-69865633D01*
X73281252Y-69865630D01*
X73276749Y-69862477D01*
X73271761Y-69860151D01*
X73074225Y-69768039D01*
X73074223Y-69768038D01*
X73069243Y-69765716D01*
X72848087Y-69706457D01*
X72842611Y-69705977D01*
X72842606Y-69705977D01*
X72625475Y-69686981D01*
X72620000Y-69686502D01*
X72614525Y-69686981D01*
X72397393Y-69705977D01*
X72397386Y-69705978D01*
X72391913Y-69706457D01*
X72386599Y-69707880D01*
X72386598Y-69707881D01*
X72176067Y-69764293D01*
X72176065Y-69764293D01*
X72170757Y-69765716D01*
X72165779Y-69768036D01*
X72165774Y-69768039D01*
X71968238Y-69860151D01*
X71968233Y-69860153D01*
X71963251Y-69862477D01*
X71958752Y-69865627D01*
X71958742Y-69865633D01*
X71780211Y-69990643D01*
X71780208Y-69990645D01*
X71775700Y-69993802D01*
X71771808Y-69997693D01*
X71771802Y-69997699D01*
X71617699Y-70151802D01*
X71617693Y-70151808D01*
X71613802Y-70155700D01*
X71610645Y-70160208D01*
X71610643Y-70160211D01*
X71485633Y-70338742D01*
X71485627Y-70338752D01*
X71482477Y-70343251D01*
X71480153Y-70348233D01*
X71480151Y-70348238D01*
X71464195Y-70382457D01*
X71417700Y-70435474D01*
X71350000Y-70455207D01*
X71282300Y-70435474D01*
X71235805Y-70382457D01*
X71219849Y-70348240D01*
X71217523Y-70343251D01*
X71086198Y-70155700D01*
X70924300Y-69993802D01*
X70772350Y-69887405D01*
X70741257Y-69865633D01*
X70741252Y-69865630D01*
X70736749Y-69862477D01*
X70731761Y-69860151D01*
X70534225Y-69768039D01*
X70534223Y-69768038D01*
X70529243Y-69765716D01*
X70308087Y-69706457D01*
X70302611Y-69705977D01*
X70302606Y-69705977D01*
X70085475Y-69686981D01*
X70080000Y-69686502D01*
X70074525Y-69686981D01*
X69857393Y-69705977D01*
X69857386Y-69705978D01*
X69851913Y-69706457D01*
X69846599Y-69707880D01*
X69846598Y-69707881D01*
X69636067Y-69764293D01*
X69636065Y-69764293D01*
X69630757Y-69765716D01*
X69625779Y-69768036D01*
X69625774Y-69768039D01*
X69428238Y-69860151D01*
X69428233Y-69860153D01*
X69423251Y-69862477D01*
X69418752Y-69865627D01*
X69418742Y-69865633D01*
X69240211Y-69990643D01*
X69240208Y-69990645D01*
X69235700Y-69993802D01*
X69231808Y-69997693D01*
X69231802Y-69997699D01*
X69077699Y-70151802D01*
X69077693Y-70151808D01*
X69073802Y-70155700D01*
X69070645Y-70160208D01*
X69070643Y-70160211D01*
X68945633Y-70338742D01*
X68945627Y-70338752D01*
X68942477Y-70343251D01*
X68940153Y-70348233D01*
X68940151Y-70348238D01*
X68924195Y-70382457D01*
X68877700Y-70435474D01*
X68810000Y-70455207D01*
X68742300Y-70435474D01*
X68695805Y-70382457D01*
X68679849Y-70348240D01*
X68677523Y-70343251D01*
X68546198Y-70155700D01*
X68384300Y-69993802D01*
X68232350Y-69887405D01*
X68201257Y-69865633D01*
X68201252Y-69865630D01*
X68196749Y-69862477D01*
X68191761Y-69860151D01*
X67994225Y-69768039D01*
X67994223Y-69768038D01*
X67989243Y-69765716D01*
X67768087Y-69706457D01*
X67762611Y-69705977D01*
X67762606Y-69705977D01*
X67545475Y-69686981D01*
X67540000Y-69686502D01*
X67534525Y-69686981D01*
X67317393Y-69705977D01*
X67317386Y-69705978D01*
X67311913Y-69706457D01*
X67306599Y-69707880D01*
X67306598Y-69707881D01*
X67096067Y-69764293D01*
X67096065Y-69764293D01*
X67090757Y-69765716D01*
X67085779Y-69768036D01*
X67085774Y-69768039D01*
X66888238Y-69860151D01*
X66888233Y-69860153D01*
X66883251Y-69862477D01*
X66878752Y-69865627D01*
X66878742Y-69865633D01*
X66700211Y-69990643D01*
X66700208Y-69990645D01*
X66695700Y-69993802D01*
X66691808Y-69997693D01*
X66691802Y-69997699D01*
X66537699Y-70151802D01*
X66537693Y-70151808D01*
X66533802Y-70155700D01*
X66530645Y-70160208D01*
X66530643Y-70160211D01*
X66405633Y-70338742D01*
X66405627Y-70338752D01*
X66402477Y-70343251D01*
X66400155Y-70348229D01*
X66400150Y-70348239D01*
X66384193Y-70382459D01*
X66337697Y-70435476D01*
X66269996Y-70455207D01*
X66202297Y-70435473D01*
X66155804Y-70382455D01*
X66137523Y-70343251D01*
X66006198Y-70155700D01*
X65844300Y-69993802D01*
X65692350Y-69887405D01*
X65661257Y-69865633D01*
X65661252Y-69865630D01*
X65656749Y-69862477D01*
X65651761Y-69860151D01*
X65454225Y-69768039D01*
X65454223Y-69768038D01*
X65449243Y-69765716D01*
X65228087Y-69706457D01*
X65222611Y-69705977D01*
X65222606Y-69705977D01*
X65005475Y-69686981D01*
X65000000Y-69686502D01*
X64994525Y-69686981D01*
X64777393Y-69705977D01*
X64777386Y-69705978D01*
X64771913Y-69706457D01*
X64766599Y-69707880D01*
X64766598Y-69707881D01*
X64556067Y-69764293D01*
X64556065Y-69764293D01*
X64550757Y-69765716D01*
X64545779Y-69768036D01*
X64545774Y-69768039D01*
X64348238Y-69860151D01*
X64348233Y-69860153D01*
X64343251Y-69862477D01*
X64338752Y-69865627D01*
X64338742Y-69865633D01*
X64160211Y-69990643D01*
X64160208Y-69990645D01*
X64155700Y-69993802D01*
X64151808Y-69997693D01*
X64151802Y-69997699D01*
X63997699Y-70151802D01*
X63997693Y-70151808D01*
X63993802Y-70155700D01*
X63990645Y-70160208D01*
X63990643Y-70160211D01*
X63865633Y-70338742D01*
X63865627Y-70338752D01*
X63862477Y-70343251D01*
X63860155Y-70348229D01*
X63860150Y-70348239D01*
X63844193Y-70382459D01*
X63797697Y-70435476D01*
X63729996Y-70455207D01*
X63662297Y-70435473D01*
X63615804Y-70382455D01*
X63597523Y-70343251D01*
X63466198Y-70155700D01*
X63304300Y-69993802D01*
X63152350Y-69887405D01*
X63121257Y-69865633D01*
X63121252Y-69865630D01*
X63116749Y-69862477D01*
X63111761Y-69860151D01*
X62914225Y-69768039D01*
X62914223Y-69768038D01*
X62909243Y-69765716D01*
X62688087Y-69706457D01*
X62682611Y-69705977D01*
X62682606Y-69705977D01*
X62465475Y-69686981D01*
X62460000Y-69686502D01*
X62454525Y-69686981D01*
X62237393Y-69705977D01*
X62237386Y-69705978D01*
X62231913Y-69706457D01*
X62226599Y-69707880D01*
X62226598Y-69707881D01*
X62016067Y-69764293D01*
X62016065Y-69764293D01*
X62010757Y-69765716D01*
X62005779Y-69768036D01*
X62005774Y-69768039D01*
X61808238Y-69860151D01*
X61808233Y-69860153D01*
X61803251Y-69862477D01*
X61798752Y-69865627D01*
X61798742Y-69865633D01*
X61620211Y-69990643D01*
X61620208Y-69990645D01*
X61615700Y-69993802D01*
X61611808Y-69997693D01*
X61611802Y-69997699D01*
X61457699Y-70151802D01*
X61457693Y-70151808D01*
X61453802Y-70155700D01*
X61450645Y-70160208D01*
X61450643Y-70160211D01*
X61325633Y-70338742D01*
X61325627Y-70338752D01*
X61322477Y-70343251D01*
X61320155Y-70348229D01*
X61320150Y-70348239D01*
X61304193Y-70382459D01*
X61257697Y-70435476D01*
X61189996Y-70455207D01*
X61122297Y-70435473D01*
X61075804Y-70382455D01*
X61057523Y-70343251D01*
X60926198Y-70155700D01*
X60764300Y-69993802D01*
X60612350Y-69887405D01*
X60581257Y-69865633D01*
X60581252Y-69865630D01*
X60576749Y-69862477D01*
X60571761Y-69860151D01*
X60374225Y-69768039D01*
X60374223Y-69768038D01*
X60369243Y-69765716D01*
X60148087Y-69706457D01*
X60142611Y-69705977D01*
X60142606Y-69705977D01*
X59925475Y-69686981D01*
X59920000Y-69686502D01*
X59914525Y-69686981D01*
X59697393Y-69705977D01*
X59697386Y-69705978D01*
X59691913Y-69706457D01*
X59686599Y-69707880D01*
X59686598Y-69707881D01*
X59476067Y-69764293D01*
X59476065Y-69764293D01*
X59470757Y-69765716D01*
X59465779Y-69768036D01*
X59465774Y-69768039D01*
X59268238Y-69860151D01*
X59268233Y-69860153D01*
X59263251Y-69862477D01*
X59258752Y-69865627D01*
X59258742Y-69865633D01*
X59080211Y-69990643D01*
X59080208Y-69990645D01*
X59075700Y-69993802D01*
X59071808Y-69997693D01*
X59071802Y-69997699D01*
X58917699Y-70151802D01*
X58917693Y-70151808D01*
X58913802Y-70155700D01*
X58910645Y-70160208D01*
X58910643Y-70160211D01*
X58785633Y-70338742D01*
X58785627Y-70338752D01*
X58782477Y-70343251D01*
X58780153Y-70348233D01*
X58780151Y-70348238D01*
X58688039Y-70545774D01*
X58688036Y-70545779D01*
X58685716Y-70550757D01*
X58684293Y-70556065D01*
X58684293Y-70556067D01*
X58636036Y-70736163D01*
X58626457Y-70771913D01*
X58625978Y-70777386D01*
X58625977Y-70777393D01*
X58612827Y-70927701D01*
X58606502Y-71000000D01*
X53971976Y-71000000D01*
X53993908Y-70927701D01*
X54013380Y-70730000D01*
X53993908Y-70532299D01*
X53936241Y-70342196D01*
X53842595Y-70166996D01*
X53716568Y-70013432D01*
X53697397Y-69997699D01*
X53567788Y-69891331D01*
X53567787Y-69891330D01*
X53563004Y-69887405D01*
X53387804Y-69793759D01*
X53372845Y-69789221D01*
X53203623Y-69737888D01*
X53203619Y-69737887D01*
X53197701Y-69736092D01*
X53191547Y-69735485D01*
X53191538Y-69735484D01*
X53006163Y-69717227D01*
X53000000Y-69716620D01*
X52993837Y-69717227D01*
X52808461Y-69735484D01*
X52808450Y-69735486D01*
X52802299Y-69736092D01*
X52796382Y-69737886D01*
X52796376Y-69737888D01*
X52618119Y-69791962D01*
X52618116Y-69791963D01*
X52612196Y-69793759D01*
X52606738Y-69796676D01*
X52606734Y-69796678D01*
X52442454Y-69884487D01*
X52442449Y-69884490D01*
X52436996Y-69887405D01*
X52432217Y-69891326D01*
X52432211Y-69891331D01*
X52288211Y-70009509D01*
X52288205Y-70009514D01*
X52283432Y-70013432D01*
X52279514Y-70018205D01*
X52279509Y-70018211D01*
X52161331Y-70162211D01*
X52161326Y-70162217D01*
X52157405Y-70166996D01*
X52154490Y-70172449D01*
X52154487Y-70172454D01*
X52066678Y-70336734D01*
X52063759Y-70342196D01*
X52061963Y-70348116D01*
X52061962Y-70348119D01*
X52007888Y-70526376D01*
X52007886Y-70526382D01*
X52006092Y-70532299D01*
X52005486Y-70538450D01*
X52005484Y-70538461D01*
X51991146Y-70684049D01*
X51986620Y-70730000D01*
X50500000Y-70730000D01*
X50500000Y-61800000D01*
X50986738Y-61800000D01*
X50986987Y-61803958D01*
X51005517Y-62098499D01*
X51005518Y-62098509D01*
X51005767Y-62102462D01*
X51006508Y-62106350D01*
X51006510Y-62106360D01*
X51061810Y-62396253D01*
X51061813Y-62396265D01*
X51062555Y-62400154D01*
X51063777Y-62403916D01*
X51063781Y-62403930D01*
X51154980Y-62684608D01*
X51156206Y-62688381D01*
X51157893Y-62691966D01*
X51157895Y-62691971D01*
X51255145Y-62898638D01*
X51285242Y-62962598D01*
X51333534Y-63038694D01*
X51445507Y-63215136D01*
X51445513Y-63215145D01*
X51447630Y-63218480D01*
X51450149Y-63221525D01*
X51450152Y-63221529D01*
X51554621Y-63347810D01*
X51640808Y-63451992D01*
X51861729Y-63659450D01*
X52106910Y-63837584D01*
X52372483Y-63983585D01*
X52654261Y-64095149D01*
X52947800Y-64170516D01*
X53248470Y-64208500D01*
X53547571Y-64208500D01*
X53551530Y-64208500D01*
X53852200Y-64170516D01*
X54145739Y-64095149D01*
X54427517Y-63983585D01*
X54693090Y-63837584D01*
X54938271Y-63659450D01*
X55159192Y-63451992D01*
X55352370Y-63218480D01*
X55514758Y-62962598D01*
X55643794Y-62688381D01*
X55737445Y-62400154D01*
X55775627Y-62200000D01*
X98986496Y-62200000D01*
X98987186Y-62206566D01*
X98987186Y-62206569D01*
X98993645Y-62268038D01*
X98994162Y-62274607D01*
X98997397Y-62336306D01*
X98997743Y-62342903D01*
X98999451Y-62349280D01*
X98999453Y-62349288D01*
X99001383Y-62356491D01*
X99004985Y-62375925D01*
X99005765Y-62383351D01*
X99005768Y-62383366D01*
X99006458Y-62389928D01*
X99027600Y-62454999D01*
X99029468Y-62461305D01*
X99045461Y-62520991D01*
X99045463Y-62520996D01*
X99047171Y-62527370D01*
X99050165Y-62533246D01*
X99050168Y-62533254D01*
X99053560Y-62539911D01*
X99061120Y-62558162D01*
X99065473Y-62571556D01*
X99099681Y-62630806D01*
X99102818Y-62636585D01*
X99133871Y-62697530D01*
X99141708Y-62707209D01*
X99142728Y-62708468D01*
X99153918Y-62724748D01*
X99160960Y-62736944D01*
X99195440Y-62775239D01*
X99206729Y-62787776D01*
X99211000Y-62792777D01*
X99223928Y-62808741D01*
X99226266Y-62811079D01*
X99238442Y-62823255D01*
X99242967Y-62828022D01*
X99288747Y-62878866D01*
X99300132Y-62887137D01*
X99315164Y-62899977D01*
X100054595Y-63639408D01*
X100081909Y-63680285D01*
X100091500Y-63728503D01*
X100091500Y-67145784D01*
X100090810Y-67158954D01*
X100086496Y-67200000D01*
X100091500Y-67247610D01*
X100106458Y-67389928D01*
X100108495Y-67396200D01*
X100108497Y-67396205D01*
X100163430Y-67565271D01*
X100163433Y-67565278D01*
X100165473Y-67571556D01*
X100260960Y-67736944D01*
X100388747Y-67878866D01*
X100543248Y-67991118D01*
X100717712Y-68068794D01*
X100904513Y-68108500D01*
X101088884Y-68108500D01*
X101095487Y-68108500D01*
X101282288Y-68068794D01*
X101456752Y-67991118D01*
X101611253Y-67878866D01*
X101739040Y-67736944D01*
X101834527Y-67571556D01*
X101893542Y-67389928D01*
X101908500Y-67247610D01*
X101913504Y-67200000D01*
X101909189Y-67158954D01*
X101908500Y-67145784D01*
X101908500Y-65146654D01*
X111077272Y-65146654D01*
X111077977Y-65158122D01*
X111112426Y-65271686D01*
X111117141Y-65283069D01*
X111204904Y-65447261D01*
X111211755Y-65457514D01*
X111329861Y-65601427D01*
X111338572Y-65610138D01*
X111482485Y-65728244D01*
X111492738Y-65735095D01*
X111656930Y-65822858D01*
X111668313Y-65827573D01*
X111781877Y-65862022D01*
X111793345Y-65862727D01*
X111796000Y-65851552D01*
X112304000Y-65851552D01*
X112306654Y-65862727D01*
X112318122Y-65862022D01*
X112431686Y-65827573D01*
X112443069Y-65822858D01*
X112607261Y-65735095D01*
X112617514Y-65728244D01*
X112761427Y-65610138D01*
X112770138Y-65601427D01*
X112888244Y-65457514D01*
X112895095Y-65447261D01*
X112982858Y-65283069D01*
X112987573Y-65271686D01*
X113022022Y-65158122D01*
X113022727Y-65146654D01*
X113011552Y-65144000D01*
X112320590Y-65144000D01*
X112307506Y-65147506D01*
X112304000Y-65160590D01*
X112304000Y-65851552D01*
X111796000Y-65851552D01*
X111796000Y-65160590D01*
X111792493Y-65147506D01*
X111779410Y-65144000D01*
X111088448Y-65144000D01*
X111077272Y-65146654D01*
X101908500Y-65146654D01*
X101908500Y-63620000D01*
X111036620Y-63620000D01*
X111037227Y-63626163D01*
X111055484Y-63811538D01*
X111055485Y-63811547D01*
X111056092Y-63817701D01*
X111057887Y-63823619D01*
X111057888Y-63823623D01*
X111062123Y-63837584D01*
X111113759Y-64007804D01*
X111116678Y-64013265D01*
X111204486Y-64177544D01*
X111204488Y-64177548D01*
X111207405Y-64183004D01*
X111210134Y-64186329D01*
X111228583Y-64230871D01*
X111228584Y-64280029D01*
X111209775Y-64325446D01*
X111204908Y-64332730D01*
X111117141Y-64496930D01*
X111112426Y-64508313D01*
X111077977Y-64621877D01*
X111077272Y-64633345D01*
X111088448Y-64636000D01*
X113011552Y-64636000D01*
X113022727Y-64633345D01*
X113022022Y-64621877D01*
X112987573Y-64508313D01*
X112982858Y-64496930D01*
X112895094Y-64332736D01*
X112890231Y-64325458D01*
X112871415Y-64280034D01*
X112871416Y-64230867D01*
X112889868Y-64186326D01*
X112892595Y-64183004D01*
X112986241Y-64007804D01*
X113043908Y-63817701D01*
X113059494Y-63659450D01*
X113062773Y-63626163D01*
X113063380Y-63620000D01*
X113062773Y-63613837D01*
X113044515Y-63428461D01*
X113044514Y-63428460D01*
X113043908Y-63422299D01*
X112986241Y-63232196D01*
X112983320Y-63226732D01*
X112982231Y-63224102D01*
X112973621Y-63160168D01*
X112992955Y-63112303D01*
X112991170Y-63111328D01*
X112995489Y-63103416D01*
X113000889Y-63096204D01*
X113051989Y-62959201D01*
X113058500Y-62898638D01*
X113058500Y-61801362D01*
X113051989Y-61740799D01*
X113000889Y-61603796D01*
X112981479Y-61577868D01*
X112918659Y-61493950D01*
X112913261Y-61486739D01*
X112906049Y-61481340D01*
X112803417Y-61404510D01*
X112803414Y-61404508D01*
X112796204Y-61399111D01*
X112787766Y-61395964D01*
X112787763Y-61395962D01*
X112666580Y-61350763D01*
X112666578Y-61350762D01*
X112659201Y-61348011D01*
X112651373Y-61347169D01*
X112651367Y-61347168D01*
X112601988Y-61341860D01*
X112601985Y-61341859D01*
X112598638Y-61341500D01*
X111501362Y-61341500D01*
X111498015Y-61341859D01*
X111498011Y-61341860D01*
X111448632Y-61347168D01*
X111448625Y-61347169D01*
X111440799Y-61348011D01*
X111433423Y-61350761D01*
X111433419Y-61350763D01*
X111312236Y-61395962D01*
X111312230Y-61395965D01*
X111303796Y-61399111D01*
X111296588Y-61404506D01*
X111296582Y-61404510D01*
X111193950Y-61481340D01*
X111193946Y-61481343D01*
X111186739Y-61486739D01*
X111181343Y-61493946D01*
X111181340Y-61493950D01*
X111104510Y-61596582D01*
X111104506Y-61596588D01*
X111099111Y-61603796D01*
X111095965Y-61612230D01*
X111095962Y-61612236D01*
X111050763Y-61733419D01*
X111050761Y-61733423D01*
X111048011Y-61740799D01*
X111047169Y-61748625D01*
X111047168Y-61748632D01*
X111042313Y-61793801D01*
X111041500Y-61801362D01*
X111041500Y-62898638D01*
X111041859Y-62901985D01*
X111041860Y-62901988D01*
X111047168Y-62951367D01*
X111047169Y-62951373D01*
X111048011Y-62959201D01*
X111050762Y-62966578D01*
X111050763Y-62966580D01*
X111095962Y-63087763D01*
X111095963Y-63087764D01*
X111099111Y-63096204D01*
X111104510Y-63103416D01*
X111108829Y-63111325D01*
X111107046Y-63112298D01*
X111126378Y-63160173D01*
X111117771Y-63224094D01*
X111116673Y-63226742D01*
X111113759Y-63232196D01*
X111111964Y-63238110D01*
X111111963Y-63238115D01*
X111057888Y-63416376D01*
X111057886Y-63416382D01*
X111056092Y-63422299D01*
X111055486Y-63428450D01*
X111055484Y-63428461D01*
X111037227Y-63613837D01*
X111036620Y-63620000D01*
X101908500Y-63620000D01*
X101908500Y-63381417D01*
X101910051Y-63361705D01*
X101912252Y-63347810D01*
X101908672Y-63279519D01*
X101908500Y-63272926D01*
X101908500Y-63255680D01*
X101908500Y-63252390D01*
X101907000Y-63238115D01*
X101906353Y-63231962D01*
X101905836Y-63225403D01*
X101902257Y-63157097D01*
X101898615Y-63143509D01*
X101895013Y-63124073D01*
X101893542Y-63110072D01*
X101872405Y-63045021D01*
X101870531Y-63038694D01*
X101854539Y-62979010D01*
X101852830Y-62972630D01*
X101846440Y-62960089D01*
X101838873Y-62941822D01*
X101834527Y-62928444D01*
X101800326Y-62869207D01*
X101797195Y-62863441D01*
X101766129Y-62802470D01*
X101757272Y-62791532D01*
X101746074Y-62775239D01*
X101742341Y-62768774D01*
X101739040Y-62763056D01*
X101693264Y-62712216D01*
X101688999Y-62707222D01*
X101676072Y-62691259D01*
X101661556Y-62676743D01*
X101657015Y-62671958D01*
X101622519Y-62633646D01*
X101611253Y-62621134D01*
X101599865Y-62612860D01*
X101584832Y-62600019D01*
X100561556Y-61576743D01*
X100557015Y-61571958D01*
X100515672Y-61526042D01*
X100515669Y-61526039D01*
X100511253Y-61521134D01*
X100505917Y-61517257D01*
X100505907Y-61517248D01*
X100455913Y-61480925D01*
X100450682Y-61476911D01*
X100402663Y-61438027D01*
X100402659Y-61438024D01*
X100397530Y-61433871D01*
X100391649Y-61430874D01*
X100391644Y-61430871D01*
X100384986Y-61427478D01*
X100368141Y-61417155D01*
X100362097Y-61412764D01*
X100362088Y-61412759D01*
X100356752Y-61408882D01*
X100294262Y-61381060D01*
X100288309Y-61378220D01*
X100233253Y-61350168D01*
X100233248Y-61350166D01*
X100227370Y-61347171D01*
X100221003Y-61345464D01*
X100220996Y-61345462D01*
X100213776Y-61343528D01*
X100195149Y-61336931D01*
X100182288Y-61331206D01*
X100175836Y-61329834D01*
X100175822Y-61329830D01*
X100115371Y-61316981D01*
X100108957Y-61315442D01*
X100049280Y-61299451D01*
X100049273Y-61299449D01*
X100042903Y-61297743D01*
X100036307Y-61297397D01*
X100028850Y-61297006D01*
X100009256Y-61294426D01*
X100001951Y-61292873D01*
X100001943Y-61292872D01*
X99995487Y-61291500D01*
X99988882Y-61291500D01*
X99927074Y-61291500D01*
X99920480Y-61291327D01*
X99858781Y-61288093D01*
X99858776Y-61288093D01*
X99852190Y-61287748D01*
X99838292Y-61289949D01*
X99818583Y-61291500D01*
X99804513Y-61291500D01*
X99798063Y-61292870D01*
X99798052Y-61292872D01*
X99737607Y-61305720D01*
X99731125Y-61306921D01*
X99670095Y-61316588D01*
X99670084Y-61316590D01*
X99663568Y-61317623D01*
X99657411Y-61319985D01*
X99657404Y-61319988D01*
X99650429Y-61322666D01*
X99631480Y-61328279D01*
X99624166Y-61329833D01*
X99624157Y-61329835D01*
X99617712Y-61331206D01*
X99611687Y-61333888D01*
X99611682Y-61333890D01*
X99555223Y-61359026D01*
X99549134Y-61361548D01*
X99491445Y-61383694D01*
X99491439Y-61383696D01*
X99485278Y-61386062D01*
X99479749Y-61389652D01*
X99479738Y-61389658D01*
X99473467Y-61393731D01*
X99456106Y-61403157D01*
X99449277Y-61406197D01*
X99449272Y-61406199D01*
X99443248Y-61408882D01*
X99437910Y-61412760D01*
X99437907Y-61412762D01*
X99387910Y-61449087D01*
X99382475Y-61452822D01*
X99330649Y-61486478D01*
X99330643Y-61486482D01*
X99325113Y-61490074D01*
X99320451Y-61494735D01*
X99320442Y-61494743D01*
X99315153Y-61500032D01*
X99300137Y-61512857D01*
X99294091Y-61517250D01*
X99294084Y-61517255D01*
X99288747Y-61521134D01*
X99270094Y-61541850D01*
X99242992Y-61571949D01*
X99238454Y-61576731D01*
X99194743Y-61620443D01*
X99194739Y-61620447D01*
X99190074Y-61625113D01*
X99186481Y-61630644D01*
X99186478Y-61630649D01*
X99182401Y-61636927D01*
X99170378Y-61652595D01*
X99165381Y-61658145D01*
X99165378Y-61658148D01*
X99160960Y-61663056D01*
X99157658Y-61668774D01*
X99157658Y-61668775D01*
X99126763Y-61722285D01*
X99123319Y-61727905D01*
X99089659Y-61779738D01*
X99089656Y-61779742D01*
X99086062Y-61785278D01*
X99083696Y-61791438D01*
X99083691Y-61791450D01*
X99081013Y-61798426D01*
X99072514Y-61816246D01*
X99068770Y-61822730D01*
X99068764Y-61822742D01*
X99065473Y-61828444D01*
X99063438Y-61834704D01*
X99063431Y-61834722D01*
X99044333Y-61893499D01*
X99042133Y-61899713D01*
X99019987Y-61957407D01*
X99019984Y-61957414D01*
X99017623Y-61963568D01*
X99016591Y-61970079D01*
X99016588Y-61970092D01*
X99015418Y-61977476D01*
X99010810Y-61996674D01*
X99008497Y-62003794D01*
X99008495Y-62003798D01*
X99006458Y-62010072D01*
X99005768Y-62016633D01*
X99005768Y-62016635D01*
X98999307Y-62078101D01*
X98998446Y-62084638D01*
X98988780Y-62145670D01*
X98988779Y-62145675D01*
X98987748Y-62152190D01*
X98988093Y-62158778D01*
X98988093Y-62158783D01*
X98988484Y-62166240D01*
X98987967Y-62185999D01*
X98986496Y-62200000D01*
X55775627Y-62200000D01*
X55794233Y-62102462D01*
X55813262Y-61800000D01*
X55794233Y-61497538D01*
X55737445Y-61199846D01*
X55734222Y-61189928D01*
X55711279Y-61119318D01*
X55643794Y-60911619D01*
X55514758Y-60637402D01*
X55401002Y-60458152D01*
X55354492Y-60384863D01*
X55354488Y-60384857D01*
X55352370Y-60381520D01*
X55299200Y-60317249D01*
X55161716Y-60151059D01*
X55159192Y-60148008D01*
X54938271Y-59940550D01*
X54738496Y-59795405D01*
X54696292Y-59764742D01*
X54696287Y-59764739D01*
X54693090Y-59762416D01*
X54689618Y-59760507D01*
X54430985Y-59618321D01*
X54430977Y-59618317D01*
X54427517Y-59616415D01*
X54358376Y-59589040D01*
X54149408Y-59506303D01*
X54149398Y-59506299D01*
X54145739Y-59504851D01*
X54120300Y-59498319D01*
X53856035Y-59430468D01*
X53856025Y-59430466D01*
X53852200Y-59429484D01*
X53848275Y-59428988D01*
X53848264Y-59428986D01*
X53555461Y-59391996D01*
X53555451Y-59391995D01*
X53551530Y-59391500D01*
X53248470Y-59391500D01*
X53244549Y-59391995D01*
X53244538Y-59391996D01*
X52951735Y-59428986D01*
X52951721Y-59428988D01*
X52947800Y-59429484D01*
X52943977Y-59430465D01*
X52943964Y-59430468D01*
X52658081Y-59503870D01*
X52658078Y-59503870D01*
X52654261Y-59504851D01*
X52650605Y-59506298D01*
X52650591Y-59506303D01*
X52376157Y-59614960D01*
X52376152Y-59614962D01*
X52372483Y-59616415D01*
X52369028Y-59618314D01*
X52369014Y-59618321D01*
X52110381Y-59760507D01*
X52110371Y-59760512D01*
X52106910Y-59762416D01*
X52103719Y-59764734D01*
X52103707Y-59764742D01*
X51864932Y-59938222D01*
X51864923Y-59938229D01*
X51861729Y-59940550D01*
X51858851Y-59943252D01*
X51858842Y-59943260D01*
X51643694Y-60145297D01*
X51643687Y-60145304D01*
X51640808Y-60148008D01*
X51638291Y-60151050D01*
X51638283Y-60151059D01*
X51450152Y-60378470D01*
X51450143Y-60378481D01*
X51447630Y-60381520D01*
X51445518Y-60384847D01*
X51445507Y-60384863D01*
X51317236Y-60586987D01*
X51285242Y-60637402D01*
X51283557Y-60640980D01*
X51283554Y-60640988D01*
X51157895Y-60908028D01*
X51157890Y-60908038D01*
X51156206Y-60911619D01*
X51154982Y-60915385D01*
X51154980Y-60915391D01*
X51063781Y-61196069D01*
X51063776Y-61196086D01*
X51062555Y-61199846D01*
X51061814Y-61203730D01*
X51061810Y-61203746D01*
X51006510Y-61493639D01*
X51006508Y-61493651D01*
X51005767Y-61497538D01*
X51005518Y-61501488D01*
X51005517Y-61501500D01*
X50989067Y-61762975D01*
X50986738Y-61800000D01*
X50500000Y-61800000D01*
X50500000Y-56608638D01*
X58611500Y-56608638D01*
X58611859Y-56611985D01*
X58611860Y-56611988D01*
X58617168Y-56661367D01*
X58617169Y-56661372D01*
X58618011Y-56669201D01*
X58620762Y-56676578D01*
X58620763Y-56676580D01*
X58665962Y-56797763D01*
X58665964Y-56797766D01*
X58669111Y-56806204D01*
X58674508Y-56813414D01*
X58674510Y-56813417D01*
X58739212Y-56899848D01*
X58756739Y-56923261D01*
X58763950Y-56928659D01*
X58852884Y-56995235D01*
X58873796Y-57010889D01*
X59010799Y-57061989D01*
X59071362Y-57068500D01*
X60765269Y-57068500D01*
X60768638Y-57068500D01*
X60829201Y-57061989D01*
X60966204Y-57010889D01*
X61083261Y-56923261D01*
X61170889Y-56806204D01*
X61221989Y-56669201D01*
X61222999Y-56659804D01*
X61223571Y-56658233D01*
X61224644Y-56653695D01*
X61225179Y-56653821D01*
X61243703Y-56602981D01*
X61288503Y-56562350D01*
X61347076Y-56547275D01*
X61405925Y-56561230D01*
X61446174Y-56596359D01*
X61447108Y-56595576D01*
X61450643Y-56599788D01*
X61453802Y-56604300D01*
X61615700Y-56766198D01*
X61803251Y-56897523D01*
X62010757Y-56994284D01*
X62231913Y-57053543D01*
X62445751Y-57072251D01*
X62488019Y-57083577D01*
X62523864Y-57108677D01*
X64850019Y-59434832D01*
X64862860Y-59449865D01*
X64871134Y-59461253D01*
X64876042Y-59465672D01*
X64921958Y-59507015D01*
X64926743Y-59511556D01*
X64941259Y-59526072D01*
X64957222Y-59538999D01*
X64962216Y-59543264D01*
X65013056Y-59589040D01*
X65025239Y-59596074D01*
X65041532Y-59607272D01*
X65052470Y-59616129D01*
X65113441Y-59647195D01*
X65119207Y-59650326D01*
X65178444Y-59684527D01*
X65191822Y-59688873D01*
X65210089Y-59696440D01*
X65222630Y-59702830D01*
X65288694Y-59720531D01*
X65295021Y-59722405D01*
X65360072Y-59743542D01*
X65374073Y-59745013D01*
X65393509Y-59748615D01*
X65407097Y-59752257D01*
X65475403Y-59755836D01*
X65481962Y-59756353D01*
X65488634Y-59757054D01*
X65502390Y-59758500D01*
X65522926Y-59758500D01*
X65529519Y-59758672D01*
X65597810Y-59762252D01*
X65611707Y-59760050D01*
X65631417Y-59758500D01*
X85421497Y-59758500D01*
X85469715Y-59768091D01*
X85510592Y-59795405D01*
X87300019Y-61584832D01*
X87312860Y-61599865D01*
X87321134Y-61611253D01*
X87358872Y-61645232D01*
X87371958Y-61657015D01*
X87376743Y-61661556D01*
X87391259Y-61676072D01*
X87407222Y-61688999D01*
X87412224Y-61693271D01*
X87447621Y-61725143D01*
X87463056Y-61739040D01*
X87475239Y-61746074D01*
X87491532Y-61757272D01*
X87502470Y-61766129D01*
X87552167Y-61791450D01*
X87563409Y-61797178D01*
X87569210Y-61800327D01*
X87628444Y-61834527D01*
X87641827Y-61838875D01*
X87660089Y-61846439D01*
X87672630Y-61852829D01*
X87732213Y-61868794D01*
X87738688Y-61870529D01*
X87745005Y-61872400D01*
X87810072Y-61893542D01*
X87824061Y-61895012D01*
X87843508Y-61898615D01*
X87857096Y-61902257D01*
X87925404Y-61905836D01*
X87931963Y-61906352D01*
X87952390Y-61908500D01*
X87972925Y-61908500D01*
X87979518Y-61908672D01*
X88047809Y-61912252D01*
X88061706Y-61910050D01*
X88081416Y-61908500D01*
X90288878Y-61908500D01*
X90295487Y-61908500D01*
X90335860Y-61899918D01*
X90348873Y-61897856D01*
X90389928Y-61893542D01*
X90429178Y-61880787D01*
X90441919Y-61877374D01*
X90442238Y-61877306D01*
X90482288Y-61868794D01*
X90519994Y-61852005D01*
X90532292Y-61847283D01*
X90571556Y-61834527D01*
X90607293Y-61813892D01*
X90619036Y-61807908D01*
X90656752Y-61791118D01*
X90672415Y-61779738D01*
X90690149Y-61766854D01*
X90701202Y-61759675D01*
X90736944Y-61739040D01*
X90767618Y-61711419D01*
X90777857Y-61703128D01*
X90811253Y-61678866D01*
X90838877Y-61648184D01*
X90848184Y-61638877D01*
X90878866Y-61611253D01*
X90903128Y-61577857D01*
X90911419Y-61567618D01*
X90939040Y-61536944D01*
X90959675Y-61501202D01*
X90966854Y-61490149D01*
X90987234Y-61462098D01*
X90987234Y-61462097D01*
X90991118Y-61456752D01*
X91007908Y-61419036D01*
X91013893Y-61407293D01*
X91020435Y-61395962D01*
X91034527Y-61371556D01*
X91047283Y-61332292D01*
X91052008Y-61319987D01*
X91053061Y-61317623D01*
X91068794Y-61282288D01*
X91077373Y-61241919D01*
X91080789Y-61229174D01*
X91093542Y-61189928D01*
X91097856Y-61148873D01*
X91099918Y-61135860D01*
X91108500Y-61095487D01*
X91108500Y-61054216D01*
X91109190Y-61041045D01*
X91112814Y-61006565D01*
X91113504Y-61000000D01*
X91109189Y-60958954D01*
X91108500Y-60945784D01*
X91108500Y-60911113D01*
X91108500Y-60904513D01*
X91099917Y-60864136D01*
X91097856Y-60851122D01*
X91094232Y-60816639D01*
X91093542Y-60810072D01*
X91080785Y-60770814D01*
X91077372Y-60758072D01*
X91070168Y-60724176D01*
X91070167Y-60724174D01*
X91068794Y-60717712D01*
X91052009Y-60680013D01*
X91047282Y-60667698D01*
X91036572Y-60634736D01*
X91036569Y-60634730D01*
X91034527Y-60628444D01*
X91031222Y-60622720D01*
X91031220Y-60622715D01*
X91013896Y-60592710D01*
X91007906Y-60580956D01*
X91006889Y-60578672D01*
X90991118Y-60543248D01*
X90966857Y-60509855D01*
X90959674Y-60498794D01*
X90942341Y-60468773D01*
X90942339Y-60468771D01*
X90939040Y-60463056D01*
X90911423Y-60432384D01*
X90903124Y-60422135D01*
X90882749Y-60394091D01*
X90882747Y-60394088D01*
X90878866Y-60388747D01*
X90848195Y-60361131D01*
X90838868Y-60351804D01*
X90815672Y-60326042D01*
X90811253Y-60321134D01*
X90805906Y-60317249D01*
X90777862Y-60296873D01*
X90767614Y-60288575D01*
X90754731Y-60276975D01*
X90736944Y-60260960D01*
X90731230Y-60257660D01*
X90731226Y-60257658D01*
X90701205Y-60240325D01*
X90690148Y-60233144D01*
X90662096Y-60212764D01*
X90662092Y-60212761D01*
X90656752Y-60208882D01*
X90619045Y-60192094D01*
X90607296Y-60186107D01*
X90577273Y-60168773D01*
X90577267Y-60168770D01*
X90571556Y-60165473D01*
X90565282Y-60163434D01*
X90565279Y-60163433D01*
X90541952Y-60155854D01*
X90532305Y-60152719D01*
X90519995Y-60147994D01*
X90488319Y-60133891D01*
X90488317Y-60133890D01*
X90482288Y-60131206D01*
X90453005Y-60124981D01*
X90441919Y-60122625D01*
X90429183Y-60119212D01*
X90396212Y-60108499D01*
X90396204Y-60108497D01*
X90389928Y-60106458D01*
X90383364Y-60105768D01*
X90383355Y-60105766D01*
X90348874Y-60102141D01*
X90335856Y-60100079D01*
X90301952Y-60092873D01*
X90301941Y-60092871D01*
X90295487Y-60091500D01*
X90288882Y-60091500D01*
X88428503Y-60091500D01*
X88380285Y-60081909D01*
X88339408Y-60054595D01*
X86549977Y-58265164D01*
X86537135Y-58250129D01*
X86528866Y-58238747D01*
X86478022Y-58192967D01*
X86473255Y-58188442D01*
X86461079Y-58176266D01*
X86461078Y-58176265D01*
X86458741Y-58173928D01*
X86442777Y-58161000D01*
X86437776Y-58156729D01*
X86391850Y-58115377D01*
X86391848Y-58115375D01*
X86386944Y-58110960D01*
X86374748Y-58103918D01*
X86358468Y-58092728D01*
X86352660Y-58088025D01*
X86347530Y-58083871D01*
X86286585Y-58052818D01*
X86280806Y-58049681D01*
X86221556Y-58015473D01*
X86215281Y-58013434D01*
X86215279Y-58013433D01*
X86208163Y-58011121D01*
X86189911Y-58003560D01*
X86183254Y-58000168D01*
X86183246Y-58000165D01*
X86177370Y-57997171D01*
X86170996Y-57995463D01*
X86170991Y-57995461D01*
X86111305Y-57979468D01*
X86104999Y-57977600D01*
X86039928Y-57956458D01*
X86033366Y-57955768D01*
X86033351Y-57955765D01*
X86025925Y-57954985D01*
X86006491Y-57951383D01*
X85999288Y-57949453D01*
X85999280Y-57949451D01*
X85992903Y-57947743D01*
X85986307Y-57947397D01*
X85986306Y-57947397D01*
X85924599Y-57944162D01*
X85918040Y-57943646D01*
X85897610Y-57941500D01*
X85894317Y-57941500D01*
X85877074Y-57941500D01*
X85870480Y-57941327D01*
X85808781Y-57938093D01*
X85808776Y-57938093D01*
X85802190Y-57937748D01*
X85788292Y-57939949D01*
X85768583Y-57941500D01*
X65978503Y-57941500D01*
X65930285Y-57931909D01*
X65889408Y-57904595D01*
X65232768Y-57247955D01*
X65200156Y-57191471D01*
X65200156Y-57126249D01*
X65232768Y-57069764D01*
X65289249Y-57037154D01*
X65449243Y-56994284D01*
X65656749Y-56897523D01*
X65844300Y-56766198D01*
X66006198Y-56604300D01*
X66137523Y-56416749D01*
X66156080Y-56376952D01*
X66202573Y-56323935D01*
X66270272Y-56304201D01*
X66337973Y-56323932D01*
X66384469Y-56376949D01*
X66400585Y-56411509D01*
X66406068Y-56421006D01*
X66531028Y-56599466D01*
X66538084Y-56607875D01*
X66692124Y-56761915D01*
X66700533Y-56768971D01*
X66878993Y-56893931D01*
X66888489Y-56899413D01*
X67085946Y-56991489D01*
X67096238Y-56995235D01*
X67271998Y-57042330D01*
X67283408Y-57042703D01*
X67286000Y-57031589D01*
X67794000Y-57031589D01*
X67796591Y-57042703D01*
X67808001Y-57042330D01*
X67983761Y-56995235D01*
X67994053Y-56991489D01*
X68191510Y-56899413D01*
X68201006Y-56893931D01*
X68379466Y-56768971D01*
X68387875Y-56761915D01*
X68541915Y-56607875D01*
X68548971Y-56599466D01*
X68673931Y-56421006D01*
X68679413Y-56411510D01*
X68695529Y-56376951D01*
X68742024Y-56323934D01*
X68809724Y-56304201D01*
X68877424Y-56323934D01*
X68923919Y-56376951D01*
X68940033Y-56411509D01*
X68942477Y-56416749D01*
X68945630Y-56421252D01*
X68945633Y-56421257D01*
X68982089Y-56473321D01*
X69073802Y-56604300D01*
X69235700Y-56766198D01*
X69423251Y-56897523D01*
X69630757Y-56994284D01*
X69851913Y-57053543D01*
X70080000Y-57073498D01*
X70308087Y-57053543D01*
X70529243Y-56994284D01*
X70736749Y-56897523D01*
X70924300Y-56766198D01*
X71086198Y-56604300D01*
X71217523Y-56416749D01*
X71235804Y-56377543D01*
X71282300Y-56324525D01*
X71350000Y-56304792D01*
X71417700Y-56324525D01*
X71464195Y-56377543D01*
X71480149Y-56411758D01*
X71480150Y-56411759D01*
X71482477Y-56416749D01*
X71485630Y-56421252D01*
X71485633Y-56421257D01*
X71522089Y-56473321D01*
X71613802Y-56604300D01*
X71775700Y-56766198D01*
X71963251Y-56897523D01*
X72170757Y-56994284D01*
X72391913Y-57053543D01*
X72620000Y-57073498D01*
X72848087Y-57053543D01*
X73069243Y-56994284D01*
X73276749Y-56897523D01*
X73464300Y-56766198D01*
X73626198Y-56604300D01*
X73757523Y-56416749D01*
X73775804Y-56377543D01*
X73822300Y-56324525D01*
X73890000Y-56304792D01*
X73957700Y-56324525D01*
X74004195Y-56377543D01*
X74020149Y-56411758D01*
X74020150Y-56411759D01*
X74022477Y-56416749D01*
X74025630Y-56421252D01*
X74025633Y-56421257D01*
X74062089Y-56473321D01*
X74153802Y-56604300D01*
X74315700Y-56766198D01*
X74503251Y-56897523D01*
X74710757Y-56994284D01*
X74931913Y-57053543D01*
X75160000Y-57073498D01*
X75388087Y-57053543D01*
X75609243Y-56994284D01*
X75816749Y-56897523D01*
X76004300Y-56766198D01*
X76166198Y-56604300D01*
X76297523Y-56416749D01*
X76315804Y-56377543D01*
X76362300Y-56324525D01*
X76430000Y-56304792D01*
X76497700Y-56324525D01*
X76544195Y-56377543D01*
X76560149Y-56411758D01*
X76560150Y-56411759D01*
X76562477Y-56416749D01*
X76565630Y-56421252D01*
X76565633Y-56421257D01*
X76602089Y-56473321D01*
X76693802Y-56604300D01*
X76855700Y-56766198D01*
X77043251Y-56897523D01*
X77250757Y-56994284D01*
X77471913Y-57053543D01*
X77700000Y-57073498D01*
X77928087Y-57053543D01*
X78149243Y-56994284D01*
X78356749Y-56897523D01*
X78544300Y-56766198D01*
X78706198Y-56604300D01*
X78837523Y-56416749D01*
X78855804Y-56377543D01*
X78902300Y-56324525D01*
X78970000Y-56304792D01*
X79037700Y-56324525D01*
X79084195Y-56377543D01*
X79100149Y-56411758D01*
X79100150Y-56411759D01*
X79102477Y-56416749D01*
X79105630Y-56421252D01*
X79105633Y-56421257D01*
X79142089Y-56473321D01*
X79233802Y-56604300D01*
X79395700Y-56766198D01*
X79583251Y-56897523D01*
X79790757Y-56994284D01*
X80011913Y-57053543D01*
X80240000Y-57073498D01*
X80468087Y-57053543D01*
X80689243Y-56994284D01*
X80896749Y-56897523D01*
X81084300Y-56766198D01*
X81246198Y-56604300D01*
X81377523Y-56416749D01*
X81395804Y-56377543D01*
X81442300Y-56324525D01*
X81510000Y-56304792D01*
X81577700Y-56324525D01*
X81624195Y-56377543D01*
X81640149Y-56411758D01*
X81640150Y-56411759D01*
X81642477Y-56416749D01*
X81645630Y-56421252D01*
X81645633Y-56421257D01*
X81682089Y-56473321D01*
X81773802Y-56604300D01*
X81935700Y-56766198D01*
X82123251Y-56897523D01*
X82330757Y-56994284D01*
X82551913Y-57053543D01*
X82780000Y-57073498D01*
X83008087Y-57053543D01*
X83229243Y-56994284D01*
X83436749Y-56897523D01*
X83624300Y-56766198D01*
X83786198Y-56604300D01*
X83917523Y-56416749D01*
X83935804Y-56377543D01*
X83982300Y-56324525D01*
X84050000Y-56304792D01*
X84117700Y-56324525D01*
X84164195Y-56377543D01*
X84180149Y-56411758D01*
X84180150Y-56411759D01*
X84182477Y-56416749D01*
X84185630Y-56421252D01*
X84185633Y-56421257D01*
X84222089Y-56473321D01*
X84313802Y-56604300D01*
X84475700Y-56766198D01*
X84663251Y-56897523D01*
X84870757Y-56994284D01*
X85091913Y-57053543D01*
X85320000Y-57073498D01*
X85548087Y-57053543D01*
X85769243Y-56994284D01*
X85976749Y-56897523D01*
X86164300Y-56766198D01*
X86326198Y-56604300D01*
X86457523Y-56416749D01*
X86475804Y-56377543D01*
X86522300Y-56324525D01*
X86590000Y-56304792D01*
X86657700Y-56324525D01*
X86704195Y-56377543D01*
X86720149Y-56411758D01*
X86720150Y-56411759D01*
X86722477Y-56416749D01*
X86725630Y-56421252D01*
X86725633Y-56421257D01*
X86762089Y-56473321D01*
X86853802Y-56604300D01*
X87015700Y-56766198D01*
X87203251Y-56897523D01*
X87410757Y-56994284D01*
X87631913Y-57053543D01*
X87860000Y-57073498D01*
X88088087Y-57053543D01*
X88309243Y-56994284D01*
X88516749Y-56897523D01*
X88704300Y-56766198D01*
X88866198Y-56604300D01*
X88997523Y-56416749D01*
X89015804Y-56377543D01*
X89062300Y-56324525D01*
X89130000Y-56304792D01*
X89197700Y-56324525D01*
X89244195Y-56377543D01*
X89260149Y-56411758D01*
X89260150Y-56411759D01*
X89262477Y-56416749D01*
X89265630Y-56421252D01*
X89265633Y-56421257D01*
X89302089Y-56473321D01*
X89393802Y-56604300D01*
X89555700Y-56766198D01*
X89743251Y-56897523D01*
X89950757Y-56994284D01*
X90171913Y-57053543D01*
X90400000Y-57073498D01*
X90628087Y-57053543D01*
X90849243Y-56994284D01*
X91056749Y-56897523D01*
X91244300Y-56766198D01*
X91406198Y-56604300D01*
X91537523Y-56416749D01*
X91555804Y-56377543D01*
X91602300Y-56324525D01*
X91670000Y-56304792D01*
X91737700Y-56324525D01*
X91784195Y-56377543D01*
X91800149Y-56411758D01*
X91800150Y-56411759D01*
X91802477Y-56416749D01*
X91805630Y-56421252D01*
X91805633Y-56421257D01*
X91842089Y-56473321D01*
X91933802Y-56604300D01*
X92095700Y-56766198D01*
X92283251Y-56897523D01*
X92490757Y-56994284D01*
X92711913Y-57053543D01*
X92940000Y-57073498D01*
X93168087Y-57053543D01*
X93389243Y-56994284D01*
X93596749Y-56897523D01*
X93784300Y-56766198D01*
X93946198Y-56604300D01*
X94077523Y-56416749D01*
X94095804Y-56377543D01*
X94142300Y-56324525D01*
X94210000Y-56304792D01*
X94277700Y-56324525D01*
X94324195Y-56377543D01*
X94340149Y-56411758D01*
X94340150Y-56411759D01*
X94342477Y-56416749D01*
X94345630Y-56421252D01*
X94345633Y-56421257D01*
X94382089Y-56473321D01*
X94473802Y-56604300D01*
X94635700Y-56766198D01*
X94823251Y-56897523D01*
X95030757Y-56994284D01*
X95251913Y-57053543D01*
X95480000Y-57073498D01*
X95708087Y-57053543D01*
X95929243Y-56994284D01*
X96136749Y-56897523D01*
X96324300Y-56766198D01*
X96486198Y-56604300D01*
X96617523Y-56416749D01*
X96714284Y-56209243D01*
X96773543Y-55988087D01*
X96793498Y-55760000D01*
X96773543Y-55531913D01*
X96714284Y-55310757D01*
X96617523Y-55103251D01*
X96486198Y-54915700D01*
X96324300Y-54753802D01*
X96250496Y-54702123D01*
X96141257Y-54625633D01*
X96141252Y-54625630D01*
X96136749Y-54622477D01*
X96131761Y-54620151D01*
X95934225Y-54528039D01*
X95934223Y-54528038D01*
X95929243Y-54525716D01*
X95708087Y-54466457D01*
X95702611Y-54465977D01*
X95702606Y-54465977D01*
X95485475Y-54446981D01*
X95480000Y-54446502D01*
X95474525Y-54446981D01*
X95257393Y-54465977D01*
X95257386Y-54465978D01*
X95251913Y-54466457D01*
X95246599Y-54467880D01*
X95246598Y-54467881D01*
X95036067Y-54524293D01*
X95036065Y-54524293D01*
X95030757Y-54525716D01*
X95025779Y-54528036D01*
X95025774Y-54528039D01*
X94828238Y-54620151D01*
X94828233Y-54620153D01*
X94823251Y-54622477D01*
X94818752Y-54625627D01*
X94818742Y-54625633D01*
X94640211Y-54750643D01*
X94640208Y-54750645D01*
X94635700Y-54753802D01*
X94631808Y-54757693D01*
X94631802Y-54757699D01*
X94477699Y-54911802D01*
X94477693Y-54911808D01*
X94473802Y-54915700D01*
X94470645Y-54920208D01*
X94470643Y-54920211D01*
X94345633Y-55098742D01*
X94345627Y-55098752D01*
X94342477Y-55103251D01*
X94340153Y-55108233D01*
X94340151Y-55108238D01*
X94324195Y-55142457D01*
X94277700Y-55195474D01*
X94210000Y-55215207D01*
X94142300Y-55195474D01*
X94095805Y-55142457D01*
X94093905Y-55138383D01*
X94077523Y-55103251D01*
X93946198Y-54915700D01*
X93784300Y-54753802D01*
X93710496Y-54702123D01*
X93601257Y-54625633D01*
X93601252Y-54625630D01*
X93596749Y-54622477D01*
X93591761Y-54620151D01*
X93394225Y-54528039D01*
X93394223Y-54528038D01*
X93389243Y-54525716D01*
X93168087Y-54466457D01*
X93162611Y-54465977D01*
X93162606Y-54465977D01*
X92945475Y-54446981D01*
X92940000Y-54446502D01*
X92934525Y-54446981D01*
X92717393Y-54465977D01*
X92717386Y-54465978D01*
X92711913Y-54466457D01*
X92706599Y-54467880D01*
X92706598Y-54467881D01*
X92496067Y-54524293D01*
X92496065Y-54524293D01*
X92490757Y-54525716D01*
X92485779Y-54528036D01*
X92485774Y-54528039D01*
X92288238Y-54620151D01*
X92288233Y-54620153D01*
X92283251Y-54622477D01*
X92278752Y-54625627D01*
X92278742Y-54625633D01*
X92100211Y-54750643D01*
X92100208Y-54750645D01*
X92095700Y-54753802D01*
X92091808Y-54757693D01*
X92091802Y-54757699D01*
X91937699Y-54911802D01*
X91937693Y-54911808D01*
X91933802Y-54915700D01*
X91930645Y-54920208D01*
X91930643Y-54920211D01*
X91805633Y-55098742D01*
X91805627Y-55098752D01*
X91802477Y-55103251D01*
X91800153Y-55108233D01*
X91800151Y-55108238D01*
X91784195Y-55142457D01*
X91737700Y-55195474D01*
X91670000Y-55215207D01*
X91602300Y-55195474D01*
X91555805Y-55142457D01*
X91553905Y-55138383D01*
X91537523Y-55103251D01*
X91406198Y-54915700D01*
X91244300Y-54753802D01*
X91170496Y-54702123D01*
X91061257Y-54625633D01*
X91061252Y-54625630D01*
X91056749Y-54622477D01*
X91051761Y-54620151D01*
X90854225Y-54528039D01*
X90854223Y-54528038D01*
X90849243Y-54525716D01*
X90628087Y-54466457D01*
X90622611Y-54465977D01*
X90622606Y-54465977D01*
X90405475Y-54446981D01*
X90400000Y-54446502D01*
X90394525Y-54446981D01*
X90177393Y-54465977D01*
X90177386Y-54465978D01*
X90171913Y-54466457D01*
X90166599Y-54467880D01*
X90166598Y-54467881D01*
X89956067Y-54524293D01*
X89956065Y-54524293D01*
X89950757Y-54525716D01*
X89945779Y-54528036D01*
X89945774Y-54528039D01*
X89748238Y-54620151D01*
X89748233Y-54620153D01*
X89743251Y-54622477D01*
X89738752Y-54625627D01*
X89738742Y-54625633D01*
X89560211Y-54750643D01*
X89560208Y-54750645D01*
X89555700Y-54753802D01*
X89551808Y-54757693D01*
X89551802Y-54757699D01*
X89397699Y-54911802D01*
X89397693Y-54911808D01*
X89393802Y-54915700D01*
X89390645Y-54920208D01*
X89390643Y-54920211D01*
X89265633Y-55098742D01*
X89265627Y-55098752D01*
X89262477Y-55103251D01*
X89260153Y-55108233D01*
X89260151Y-55108238D01*
X89244195Y-55142457D01*
X89197700Y-55195474D01*
X89130000Y-55215207D01*
X89062300Y-55195474D01*
X89015805Y-55142457D01*
X89013905Y-55138383D01*
X88997523Y-55103251D01*
X88866198Y-54915700D01*
X88704300Y-54753802D01*
X88630496Y-54702123D01*
X88521257Y-54625633D01*
X88521252Y-54625630D01*
X88516749Y-54622477D01*
X88511761Y-54620151D01*
X88314225Y-54528039D01*
X88314223Y-54528038D01*
X88309243Y-54525716D01*
X88088087Y-54466457D01*
X88082611Y-54465977D01*
X88082606Y-54465977D01*
X87865475Y-54446981D01*
X87860000Y-54446502D01*
X87854525Y-54446981D01*
X87637393Y-54465977D01*
X87637386Y-54465978D01*
X87631913Y-54466457D01*
X87626599Y-54467880D01*
X87626598Y-54467881D01*
X87416067Y-54524293D01*
X87416065Y-54524293D01*
X87410757Y-54525716D01*
X87405779Y-54528036D01*
X87405774Y-54528039D01*
X87208238Y-54620151D01*
X87208233Y-54620153D01*
X87203251Y-54622477D01*
X87198752Y-54625627D01*
X87198742Y-54625633D01*
X87020211Y-54750643D01*
X87020208Y-54750645D01*
X87015700Y-54753802D01*
X87011808Y-54757693D01*
X87011802Y-54757699D01*
X86857699Y-54911802D01*
X86857693Y-54911808D01*
X86853802Y-54915700D01*
X86850645Y-54920208D01*
X86850643Y-54920211D01*
X86725633Y-55098742D01*
X86725627Y-55098752D01*
X86722477Y-55103251D01*
X86720153Y-55108233D01*
X86720151Y-55108238D01*
X86704195Y-55142457D01*
X86657700Y-55195474D01*
X86590000Y-55215207D01*
X86522300Y-55195474D01*
X86475805Y-55142457D01*
X86473905Y-55138383D01*
X86457523Y-55103251D01*
X86326198Y-54915700D01*
X86164300Y-54753802D01*
X86090496Y-54702123D01*
X85981257Y-54625633D01*
X85981252Y-54625630D01*
X85976749Y-54622477D01*
X85971761Y-54620151D01*
X85774225Y-54528039D01*
X85774223Y-54528038D01*
X85769243Y-54525716D01*
X85548087Y-54466457D01*
X85542611Y-54465977D01*
X85542606Y-54465977D01*
X85325475Y-54446981D01*
X85320000Y-54446502D01*
X85314525Y-54446981D01*
X85097393Y-54465977D01*
X85097386Y-54465978D01*
X85091913Y-54466457D01*
X85086599Y-54467880D01*
X85086598Y-54467881D01*
X84876067Y-54524293D01*
X84876065Y-54524293D01*
X84870757Y-54525716D01*
X84865779Y-54528036D01*
X84865774Y-54528039D01*
X84668238Y-54620151D01*
X84668233Y-54620153D01*
X84663251Y-54622477D01*
X84658752Y-54625627D01*
X84658742Y-54625633D01*
X84480211Y-54750643D01*
X84480208Y-54750645D01*
X84475700Y-54753802D01*
X84471808Y-54757693D01*
X84471802Y-54757699D01*
X84317699Y-54911802D01*
X84317693Y-54911808D01*
X84313802Y-54915700D01*
X84310645Y-54920208D01*
X84310643Y-54920211D01*
X84185633Y-55098742D01*
X84185627Y-55098752D01*
X84182477Y-55103251D01*
X84180153Y-55108233D01*
X84180151Y-55108238D01*
X84164195Y-55142457D01*
X84117700Y-55195474D01*
X84050000Y-55215207D01*
X83982300Y-55195474D01*
X83935805Y-55142457D01*
X83933905Y-55138383D01*
X83917523Y-55103251D01*
X83786198Y-54915700D01*
X83624300Y-54753802D01*
X83550496Y-54702123D01*
X83441257Y-54625633D01*
X83441252Y-54625630D01*
X83436749Y-54622477D01*
X83431761Y-54620151D01*
X83234225Y-54528039D01*
X83234223Y-54528038D01*
X83229243Y-54525716D01*
X83008087Y-54466457D01*
X83002611Y-54465977D01*
X83002606Y-54465977D01*
X82785475Y-54446981D01*
X82780000Y-54446502D01*
X82774525Y-54446981D01*
X82557393Y-54465977D01*
X82557386Y-54465978D01*
X82551913Y-54466457D01*
X82546599Y-54467880D01*
X82546598Y-54467881D01*
X82336067Y-54524293D01*
X82336065Y-54524293D01*
X82330757Y-54525716D01*
X82325779Y-54528036D01*
X82325774Y-54528039D01*
X82128238Y-54620151D01*
X82128233Y-54620153D01*
X82123251Y-54622477D01*
X82118752Y-54625627D01*
X82118742Y-54625633D01*
X81940211Y-54750643D01*
X81940208Y-54750645D01*
X81935700Y-54753802D01*
X81931808Y-54757693D01*
X81931802Y-54757699D01*
X81777699Y-54911802D01*
X81777693Y-54911808D01*
X81773802Y-54915700D01*
X81770645Y-54920208D01*
X81770643Y-54920211D01*
X81645633Y-55098742D01*
X81645627Y-55098752D01*
X81642477Y-55103251D01*
X81640153Y-55108233D01*
X81640151Y-55108238D01*
X81624195Y-55142457D01*
X81577700Y-55195474D01*
X81510000Y-55215207D01*
X81442300Y-55195474D01*
X81395805Y-55142457D01*
X81393905Y-55138383D01*
X81377523Y-55103251D01*
X81246198Y-54915700D01*
X81084300Y-54753802D01*
X81010496Y-54702123D01*
X80901257Y-54625633D01*
X80901252Y-54625630D01*
X80896749Y-54622477D01*
X80891761Y-54620151D01*
X80694225Y-54528039D01*
X80694223Y-54528038D01*
X80689243Y-54525716D01*
X80468087Y-54466457D01*
X80462611Y-54465977D01*
X80462606Y-54465977D01*
X80245475Y-54446981D01*
X80240000Y-54446502D01*
X80234525Y-54446981D01*
X80017393Y-54465977D01*
X80017386Y-54465978D01*
X80011913Y-54466457D01*
X80006599Y-54467880D01*
X80006598Y-54467881D01*
X79796067Y-54524293D01*
X79796065Y-54524293D01*
X79790757Y-54525716D01*
X79785779Y-54528036D01*
X79785774Y-54528039D01*
X79588238Y-54620151D01*
X79588233Y-54620153D01*
X79583251Y-54622477D01*
X79578752Y-54625627D01*
X79578742Y-54625633D01*
X79400211Y-54750643D01*
X79400208Y-54750645D01*
X79395700Y-54753802D01*
X79391808Y-54757693D01*
X79391802Y-54757699D01*
X79237699Y-54911802D01*
X79237693Y-54911808D01*
X79233802Y-54915700D01*
X79230645Y-54920208D01*
X79230643Y-54920211D01*
X79105633Y-55098742D01*
X79105627Y-55098752D01*
X79102477Y-55103251D01*
X79100153Y-55108233D01*
X79100151Y-55108238D01*
X79084195Y-55142457D01*
X79037700Y-55195474D01*
X78970000Y-55215207D01*
X78902300Y-55195474D01*
X78855805Y-55142457D01*
X78853905Y-55138383D01*
X78837523Y-55103251D01*
X78706198Y-54915700D01*
X78544300Y-54753802D01*
X78470496Y-54702123D01*
X78361257Y-54625633D01*
X78361252Y-54625630D01*
X78356749Y-54622477D01*
X78351761Y-54620151D01*
X78154225Y-54528039D01*
X78154223Y-54528038D01*
X78149243Y-54525716D01*
X77928087Y-54466457D01*
X77922611Y-54465977D01*
X77922606Y-54465977D01*
X77705475Y-54446981D01*
X77700000Y-54446502D01*
X77694525Y-54446981D01*
X77477393Y-54465977D01*
X77477386Y-54465978D01*
X77471913Y-54466457D01*
X77466599Y-54467880D01*
X77466598Y-54467881D01*
X77256067Y-54524293D01*
X77256065Y-54524293D01*
X77250757Y-54525716D01*
X77245779Y-54528036D01*
X77245774Y-54528039D01*
X77048238Y-54620151D01*
X77048233Y-54620153D01*
X77043251Y-54622477D01*
X77038752Y-54625627D01*
X77038742Y-54625633D01*
X76860211Y-54750643D01*
X76860208Y-54750645D01*
X76855700Y-54753802D01*
X76851808Y-54757693D01*
X76851802Y-54757699D01*
X76697699Y-54911802D01*
X76697693Y-54911808D01*
X76693802Y-54915700D01*
X76690645Y-54920208D01*
X76690643Y-54920211D01*
X76565633Y-55098742D01*
X76565627Y-55098752D01*
X76562477Y-55103251D01*
X76560153Y-55108233D01*
X76560151Y-55108238D01*
X76544195Y-55142457D01*
X76497700Y-55195474D01*
X76430000Y-55215207D01*
X76362300Y-55195474D01*
X76315805Y-55142457D01*
X76313905Y-55138383D01*
X76297523Y-55103251D01*
X76166198Y-54915700D01*
X76004300Y-54753802D01*
X75930496Y-54702123D01*
X75821257Y-54625633D01*
X75821252Y-54625630D01*
X75816749Y-54622477D01*
X75811761Y-54620151D01*
X75614225Y-54528039D01*
X75614223Y-54528038D01*
X75609243Y-54525716D01*
X75388087Y-54466457D01*
X75382611Y-54465977D01*
X75382606Y-54465977D01*
X75165475Y-54446981D01*
X75160000Y-54446502D01*
X75154525Y-54446981D01*
X74937393Y-54465977D01*
X74937386Y-54465978D01*
X74931913Y-54466457D01*
X74926599Y-54467880D01*
X74926598Y-54467881D01*
X74716067Y-54524293D01*
X74716065Y-54524293D01*
X74710757Y-54525716D01*
X74705779Y-54528036D01*
X74705774Y-54528039D01*
X74508238Y-54620151D01*
X74508233Y-54620153D01*
X74503251Y-54622477D01*
X74498752Y-54625627D01*
X74498742Y-54625633D01*
X74320211Y-54750643D01*
X74320208Y-54750645D01*
X74315700Y-54753802D01*
X74311808Y-54757693D01*
X74311802Y-54757699D01*
X74157699Y-54911802D01*
X74157693Y-54911808D01*
X74153802Y-54915700D01*
X74150645Y-54920208D01*
X74150643Y-54920211D01*
X74025633Y-55098742D01*
X74025627Y-55098752D01*
X74022477Y-55103251D01*
X74020153Y-55108233D01*
X74020151Y-55108238D01*
X74004195Y-55142457D01*
X73957700Y-55195474D01*
X73890000Y-55215207D01*
X73822300Y-55195474D01*
X73775805Y-55142457D01*
X73773905Y-55138383D01*
X73757523Y-55103251D01*
X73626198Y-54915700D01*
X73464300Y-54753802D01*
X73390496Y-54702123D01*
X73281257Y-54625633D01*
X73281252Y-54625630D01*
X73276749Y-54622477D01*
X73271761Y-54620151D01*
X73074225Y-54528039D01*
X73074223Y-54528038D01*
X73069243Y-54525716D01*
X72848087Y-54466457D01*
X72842611Y-54465977D01*
X72842606Y-54465977D01*
X72625475Y-54446981D01*
X72620000Y-54446502D01*
X72614525Y-54446981D01*
X72397393Y-54465977D01*
X72397386Y-54465978D01*
X72391913Y-54466457D01*
X72386599Y-54467880D01*
X72386598Y-54467881D01*
X72176067Y-54524293D01*
X72176065Y-54524293D01*
X72170757Y-54525716D01*
X72165779Y-54528036D01*
X72165774Y-54528039D01*
X71968238Y-54620151D01*
X71968233Y-54620153D01*
X71963251Y-54622477D01*
X71958752Y-54625627D01*
X71958742Y-54625633D01*
X71780211Y-54750643D01*
X71780208Y-54750645D01*
X71775700Y-54753802D01*
X71771808Y-54757693D01*
X71771802Y-54757699D01*
X71617699Y-54911802D01*
X71617693Y-54911808D01*
X71613802Y-54915700D01*
X71610645Y-54920208D01*
X71610643Y-54920211D01*
X71485633Y-55098742D01*
X71485627Y-55098752D01*
X71482477Y-55103251D01*
X71480153Y-55108233D01*
X71480151Y-55108238D01*
X71464195Y-55142457D01*
X71417700Y-55195474D01*
X71350000Y-55215207D01*
X71282300Y-55195474D01*
X71235805Y-55142457D01*
X71233905Y-55138383D01*
X71217523Y-55103251D01*
X71086198Y-54915700D01*
X70924300Y-54753802D01*
X70850496Y-54702123D01*
X70741257Y-54625633D01*
X70741252Y-54625630D01*
X70736749Y-54622477D01*
X70731761Y-54620151D01*
X70534225Y-54528039D01*
X70534223Y-54528038D01*
X70529243Y-54525716D01*
X70308087Y-54466457D01*
X70302611Y-54465977D01*
X70302606Y-54465977D01*
X70085475Y-54446981D01*
X70080000Y-54446502D01*
X70074525Y-54446981D01*
X69857393Y-54465977D01*
X69857386Y-54465978D01*
X69851913Y-54466457D01*
X69846599Y-54467880D01*
X69846598Y-54467881D01*
X69636067Y-54524293D01*
X69636065Y-54524293D01*
X69630757Y-54525716D01*
X69625779Y-54528036D01*
X69625774Y-54528039D01*
X69428238Y-54620151D01*
X69428233Y-54620153D01*
X69423251Y-54622477D01*
X69418752Y-54625627D01*
X69418742Y-54625633D01*
X69240211Y-54750643D01*
X69240208Y-54750645D01*
X69235700Y-54753802D01*
X69231808Y-54757693D01*
X69231802Y-54757699D01*
X69077699Y-54911802D01*
X69077693Y-54911808D01*
X69073802Y-54915700D01*
X69070645Y-54920208D01*
X69070643Y-54920211D01*
X68945633Y-55098742D01*
X68945627Y-55098752D01*
X68942477Y-55103251D01*
X68940154Y-55108232D01*
X68940148Y-55108243D01*
X68923918Y-55143049D01*
X68877423Y-55196066D01*
X68809724Y-55215798D01*
X68742025Y-55196066D01*
X68695530Y-55143049D01*
X68679416Y-55108494D01*
X68673931Y-55098993D01*
X68548971Y-54920533D01*
X68541915Y-54912124D01*
X68387875Y-54758084D01*
X68379466Y-54751028D01*
X68201006Y-54626068D01*
X68191510Y-54620586D01*
X67994053Y-54528510D01*
X67983761Y-54524764D01*
X67808001Y-54477669D01*
X67796591Y-54477296D01*
X67794000Y-54488411D01*
X67794000Y-57031589D01*
X67286000Y-57031589D01*
X67286000Y-54488411D01*
X67283408Y-54477296D01*
X67271998Y-54477669D01*
X67096238Y-54524764D01*
X67085946Y-54528510D01*
X66888489Y-54620586D01*
X66878993Y-54626068D01*
X66700533Y-54751028D01*
X66692124Y-54758084D01*
X66538084Y-54912124D01*
X66531028Y-54920533D01*
X66406068Y-55098993D01*
X66400582Y-55108496D01*
X66384468Y-55143051D01*
X66337972Y-55196067D01*
X66270272Y-55215798D01*
X66202573Y-55196064D01*
X66156080Y-55143046D01*
X66139853Y-55108245D01*
X66139846Y-55108233D01*
X66137523Y-55103251D01*
X66006198Y-54915700D01*
X65844300Y-54753802D01*
X65770496Y-54702123D01*
X65661257Y-54625633D01*
X65661252Y-54625630D01*
X65656749Y-54622477D01*
X65651761Y-54620151D01*
X65454225Y-54528039D01*
X65454223Y-54528038D01*
X65449243Y-54525716D01*
X65228087Y-54466457D01*
X65222611Y-54465977D01*
X65222606Y-54465977D01*
X65005475Y-54446981D01*
X65000000Y-54446502D01*
X64994525Y-54446981D01*
X64777393Y-54465977D01*
X64777386Y-54465978D01*
X64771913Y-54466457D01*
X64766599Y-54467880D01*
X64766598Y-54467881D01*
X64556067Y-54524293D01*
X64556065Y-54524293D01*
X64550757Y-54525716D01*
X64545779Y-54528036D01*
X64545774Y-54528039D01*
X64348238Y-54620151D01*
X64348233Y-54620153D01*
X64343251Y-54622477D01*
X64338752Y-54625627D01*
X64338742Y-54625633D01*
X64160211Y-54750643D01*
X64160208Y-54750645D01*
X64155700Y-54753802D01*
X64151808Y-54757693D01*
X64151802Y-54757699D01*
X63997699Y-54911802D01*
X63997693Y-54911808D01*
X63993802Y-54915700D01*
X63990645Y-54920208D01*
X63990643Y-54920211D01*
X63865633Y-55098742D01*
X63865627Y-55098752D01*
X63862477Y-55103251D01*
X63860153Y-55108233D01*
X63860151Y-55108238D01*
X63844195Y-55142457D01*
X63797700Y-55195474D01*
X63730000Y-55215207D01*
X63662300Y-55195474D01*
X63615805Y-55142457D01*
X63613905Y-55138383D01*
X63597523Y-55103251D01*
X63466198Y-54915700D01*
X63304300Y-54753802D01*
X63230496Y-54702123D01*
X63121257Y-54625633D01*
X63121252Y-54625630D01*
X63116749Y-54622477D01*
X63111761Y-54620151D01*
X62914225Y-54528039D01*
X62914223Y-54528038D01*
X62909243Y-54525716D01*
X62688087Y-54466457D01*
X62682611Y-54465977D01*
X62682606Y-54465977D01*
X62465475Y-54446981D01*
X62460000Y-54446502D01*
X62454525Y-54446981D01*
X62237393Y-54465977D01*
X62237386Y-54465978D01*
X62231913Y-54466457D01*
X62226599Y-54467880D01*
X62226598Y-54467881D01*
X62016067Y-54524293D01*
X62016065Y-54524293D01*
X62010757Y-54525716D01*
X62005779Y-54528036D01*
X62005774Y-54528039D01*
X61808238Y-54620151D01*
X61808233Y-54620153D01*
X61803251Y-54622477D01*
X61798752Y-54625627D01*
X61798742Y-54625633D01*
X61620211Y-54750643D01*
X61620208Y-54750645D01*
X61615700Y-54753802D01*
X61611808Y-54757693D01*
X61611802Y-54757699D01*
X61457699Y-54911802D01*
X61457693Y-54911808D01*
X61453802Y-54915700D01*
X61450644Y-54920209D01*
X61447108Y-54924424D01*
X61446176Y-54923642D01*
X61405912Y-54958775D01*
X61347065Y-54972724D01*
X61288498Y-54957646D01*
X61243702Y-54917015D01*
X61225179Y-54866178D01*
X61224644Y-54866305D01*
X61223571Y-54861766D01*
X61222999Y-54860195D01*
X61221989Y-54850799D01*
X61170889Y-54713796D01*
X61083261Y-54596739D01*
X61076049Y-54591340D01*
X60973417Y-54514510D01*
X60973414Y-54514508D01*
X60966204Y-54509111D01*
X60957766Y-54505964D01*
X60957763Y-54505962D01*
X60836580Y-54460763D01*
X60836578Y-54460762D01*
X60829201Y-54458011D01*
X60821373Y-54457169D01*
X60821367Y-54457168D01*
X60771988Y-54451860D01*
X60771985Y-54451859D01*
X60768638Y-54451500D01*
X59071362Y-54451500D01*
X59068015Y-54451859D01*
X59068011Y-54451860D01*
X59018632Y-54457168D01*
X59018625Y-54457169D01*
X59010799Y-54458011D01*
X59003423Y-54460761D01*
X59003419Y-54460763D01*
X58882236Y-54505962D01*
X58882230Y-54505965D01*
X58873796Y-54509111D01*
X58866588Y-54514506D01*
X58866582Y-54514510D01*
X58763950Y-54591340D01*
X58763946Y-54591343D01*
X58756739Y-54596739D01*
X58751343Y-54603946D01*
X58751340Y-54603950D01*
X58674510Y-54706582D01*
X58674506Y-54706588D01*
X58669111Y-54713796D01*
X58665965Y-54722230D01*
X58665962Y-54722236D01*
X58620763Y-54843419D01*
X58620761Y-54843423D01*
X58618011Y-54850799D01*
X58617169Y-54858625D01*
X58617168Y-54858632D01*
X58612184Y-54904999D01*
X58611500Y-54911362D01*
X58611500Y-56608638D01*
X50500000Y-56608638D01*
X50500000Y-55540000D01*
X51986620Y-55540000D01*
X51987227Y-55546163D01*
X52005484Y-55731538D01*
X52005485Y-55731547D01*
X52006092Y-55737701D01*
X52063759Y-55927804D01*
X52157405Y-56103004D01*
X52161330Y-56107787D01*
X52161331Y-56107788D01*
X52224729Y-56185039D01*
X52283432Y-56256568D01*
X52436996Y-56382595D01*
X52612196Y-56476241D01*
X52802299Y-56533908D01*
X52808460Y-56534514D01*
X52808461Y-56534515D01*
X52993837Y-56552773D01*
X53000000Y-56553380D01*
X53197701Y-56533908D01*
X53387804Y-56476241D01*
X53563004Y-56382595D01*
X53716568Y-56256568D01*
X53842595Y-56103004D01*
X53936241Y-55927804D01*
X53993908Y-55737701D01*
X54013380Y-55540000D01*
X54012773Y-55533837D01*
X53994515Y-55348461D01*
X53994514Y-55348460D01*
X53993908Y-55342299D01*
X53936241Y-55152196D01*
X53868724Y-55025880D01*
X53845512Y-54982453D01*
X53845511Y-54982451D01*
X53842595Y-54976996D01*
X53840099Y-54973955D01*
X53821718Y-54929578D01*
X53821719Y-54880411D01*
X53840100Y-54836043D01*
X53842595Y-54833004D01*
X53936241Y-54657804D01*
X53993908Y-54467701D01*
X54013380Y-54270000D01*
X53993908Y-54072299D01*
X53971976Y-54000000D01*
X108586738Y-54000000D01*
X108586987Y-54003958D01*
X108605517Y-54298499D01*
X108605518Y-54298509D01*
X108605767Y-54302462D01*
X108606508Y-54306350D01*
X108606510Y-54306360D01*
X108661810Y-54596253D01*
X108661813Y-54596265D01*
X108662555Y-54600154D01*
X108663777Y-54603916D01*
X108663781Y-54603930D01*
X108736437Y-54827539D01*
X108756206Y-54888381D01*
X108757893Y-54891966D01*
X108757895Y-54891971D01*
X108876043Y-55143049D01*
X108885242Y-55162598D01*
X108918629Y-55215207D01*
X109045507Y-55415136D01*
X109045513Y-55415145D01*
X109047630Y-55418480D01*
X109050149Y-55421525D01*
X109050152Y-55421529D01*
X109238283Y-55648940D01*
X109240808Y-55651992D01*
X109461729Y-55859450D01*
X109706910Y-56037584D01*
X109972483Y-56183585D01*
X110254261Y-56295149D01*
X110547800Y-56370516D01*
X110848470Y-56408500D01*
X111147571Y-56408500D01*
X111151530Y-56408500D01*
X111452200Y-56370516D01*
X111745739Y-56295149D01*
X112027517Y-56183585D01*
X112293090Y-56037584D01*
X112538271Y-55859450D01*
X112759192Y-55651992D01*
X112952370Y-55418480D01*
X113114758Y-55162598D01*
X113243794Y-54888381D01*
X113337445Y-54600154D01*
X113394233Y-54302462D01*
X113413262Y-54000000D01*
X113394233Y-53697538D01*
X113337445Y-53399846D01*
X113243794Y-53111619D01*
X113114758Y-52837402D01*
X112952370Y-52581520D01*
X112759192Y-52348008D01*
X112538271Y-52140550D01*
X112420458Y-52054954D01*
X112296292Y-51964742D01*
X112296287Y-51964739D01*
X112293090Y-51962416D01*
X112289618Y-51960507D01*
X112030985Y-51818321D01*
X112030977Y-51818317D01*
X112027517Y-51816415D01*
X112008950Y-51809063D01*
X111749408Y-51706303D01*
X111749398Y-51706299D01*
X111745739Y-51704851D01*
X111720300Y-51698319D01*
X111456035Y-51630468D01*
X111456025Y-51630466D01*
X111452200Y-51629484D01*
X111448275Y-51628988D01*
X111448264Y-51628986D01*
X111155461Y-51591996D01*
X111155451Y-51591995D01*
X111151530Y-51591500D01*
X110848470Y-51591500D01*
X110844549Y-51591995D01*
X110844538Y-51591996D01*
X110551735Y-51628986D01*
X110551721Y-51628988D01*
X110547800Y-51629484D01*
X110543977Y-51630465D01*
X110543964Y-51630468D01*
X110258081Y-51703870D01*
X110258078Y-51703870D01*
X110254261Y-51704851D01*
X110250605Y-51706298D01*
X110250591Y-51706303D01*
X109976157Y-51814960D01*
X109976152Y-51814962D01*
X109972483Y-51816415D01*
X109969028Y-51818314D01*
X109969014Y-51818321D01*
X109710381Y-51960507D01*
X109710371Y-51960512D01*
X109706910Y-51962416D01*
X109703719Y-51964734D01*
X109703707Y-51964742D01*
X109464932Y-52138222D01*
X109464923Y-52138229D01*
X109461729Y-52140550D01*
X109458851Y-52143252D01*
X109458842Y-52143260D01*
X109243694Y-52345297D01*
X109243687Y-52345304D01*
X109240808Y-52348008D01*
X109238291Y-52351050D01*
X109238283Y-52351059D01*
X109050152Y-52578470D01*
X109050143Y-52578481D01*
X109047630Y-52581520D01*
X109045518Y-52584847D01*
X109045507Y-52584863D01*
X108887366Y-52834055D01*
X108885242Y-52837402D01*
X108883557Y-52840980D01*
X108883554Y-52840988D01*
X108757895Y-53108028D01*
X108757890Y-53108038D01*
X108756206Y-53111619D01*
X108754982Y-53115385D01*
X108754980Y-53115391D01*
X108663781Y-53396069D01*
X108663776Y-53396086D01*
X108662555Y-53399846D01*
X108661814Y-53403730D01*
X108661810Y-53403746D01*
X108606510Y-53693639D01*
X108606508Y-53693651D01*
X108605767Y-53697538D01*
X108605518Y-53701488D01*
X108605517Y-53701500D01*
X108598715Y-53809624D01*
X108586738Y-54000000D01*
X53971976Y-54000000D01*
X53936241Y-53882196D01*
X53933323Y-53876736D01*
X53932009Y-53873565D01*
X53923399Y-53809624D01*
X53942597Y-53762106D01*
X53940726Y-53761085D01*
X53953596Y-53737515D01*
X53998740Y-53616478D01*
X54002337Y-53601257D01*
X54007640Y-53551938D01*
X54008000Y-53545223D01*
X54008000Y-53270590D01*
X54004493Y-53257506D01*
X53991410Y-53254000D01*
X52008590Y-53254000D01*
X51995506Y-53257506D01*
X51992000Y-53270590D01*
X51992000Y-53545223D01*
X51992359Y-53551938D01*
X51997662Y-53601257D01*
X52001259Y-53616478D01*
X52046405Y-53737519D01*
X52059273Y-53761085D01*
X52057406Y-53762104D01*
X52076600Y-53809637D01*
X52067994Y-53873555D01*
X52066673Y-53876743D01*
X52063759Y-53882196D01*
X52061964Y-53888113D01*
X52061963Y-53888116D01*
X52007888Y-54066376D01*
X52007886Y-54066382D01*
X52006092Y-54072299D01*
X52005486Y-54078450D01*
X52005484Y-54078461D01*
X51987227Y-54263837D01*
X51986620Y-54270000D01*
X51987227Y-54276163D01*
X52005484Y-54461538D01*
X52005485Y-54461547D01*
X52006092Y-54467701D01*
X52007887Y-54473619D01*
X52007888Y-54473623D01*
X52047423Y-54603950D01*
X52063759Y-54657804D01*
X52157405Y-54833004D01*
X52159900Y-54836044D01*
X52178281Y-54880419D01*
X52178281Y-54929581D01*
X52159900Y-54973954D01*
X52157405Y-54976996D01*
X52154490Y-54982449D01*
X52154487Y-54982454D01*
X52068648Y-55143049D01*
X52063759Y-55152196D01*
X52061963Y-55158116D01*
X52061962Y-55158119D01*
X52007888Y-55336376D01*
X52007886Y-55336382D01*
X52006092Y-55342299D01*
X52005486Y-55348450D01*
X52005484Y-55348461D01*
X51987227Y-55533837D01*
X51986620Y-55540000D01*
X50500000Y-55540000D01*
X50500000Y-52729410D01*
X51992000Y-52729410D01*
X51995506Y-52742493D01*
X52008590Y-52746000D01*
X52729410Y-52746000D01*
X52742493Y-52742493D01*
X52746000Y-52729410D01*
X53254000Y-52729410D01*
X53257506Y-52742493D01*
X53270590Y-52746000D01*
X53991410Y-52746000D01*
X54004493Y-52742493D01*
X54008000Y-52729410D01*
X54008000Y-52454777D01*
X54007640Y-52448061D01*
X54002337Y-52398742D01*
X53998740Y-52383521D01*
X53953594Y-52262480D01*
X53945045Y-52246824D01*
X53868302Y-52144307D01*
X53855692Y-52131697D01*
X53753175Y-52054954D01*
X53737519Y-52046405D01*
X53616478Y-52001259D01*
X53601257Y-51997662D01*
X53551938Y-51992359D01*
X53545223Y-51992000D01*
X53270590Y-51992000D01*
X53257506Y-51995506D01*
X53254000Y-52008590D01*
X53254000Y-52729410D01*
X52746000Y-52729410D01*
X52746000Y-52008590D01*
X52742493Y-51995506D01*
X52729410Y-51992000D01*
X52454777Y-51992000D01*
X52448061Y-51992359D01*
X52398742Y-51997662D01*
X52383521Y-52001259D01*
X52262480Y-52046405D01*
X52246824Y-52054954D01*
X52144307Y-52131697D01*
X52131697Y-52144307D01*
X52054954Y-52246824D01*
X52046405Y-52262480D01*
X52001259Y-52383521D01*
X51997662Y-52398742D01*
X51992359Y-52448061D01*
X51992000Y-52454777D01*
X51992000Y-52729410D01*
X50500000Y-52729410D01*
X50500000Y-50626000D01*
X50516881Y-50563000D01*
X50563000Y-50516881D01*
X50626000Y-50500000D01*
X114374000Y-50500000D01*
X114437000Y-50516881D01*
G37*
%TD.AperFunction*%
%TD*%
M02*
