M48
; DRILL file {KiCad 7.0.0-da2b9df05c~163~ubuntu22.04.1} date Thu 09 Mar 2023 12:10:27 AM CET
; FORMAT={-:-/ absolute / inch / decimal}
; #@! TF.CreationDate,2023-03-09T00:10:27+01:00
; #@! TF.GenerationSoftware,Kicad,Pcbnew,7.0.0-da2b9df05c~163~ubuntu22.04.1
; #@! TF.FileFunction,Plated,1,2,PTH
FMAT,2
INCH
; #@! TA.AperFunction,Plated,PTH,ViaDrill
T1C0.0157
; #@! TA.AperFunction,Plated,PTH,ViaDrill
T2C0.0236
; #@! TA.AperFunction,Plated,PTH,ComponentDrill
T3C0.0256
; #@! TA.AperFunction,Plated,PTH,ComponentDrill
T4C0.0394
; #@! TA.AperFunction,Plated,PTH,ComponentDrill
T5C0.0866
%
G90
G05
T1
X3.5512Y-2.4016
X3.9331Y-2.4488
X3.9764Y-2.6457
T2
X3.5197Y-2.5906
X3.8189Y-2.6693
X3.8386Y-2.3642
X4.0157Y-2.3543
T3
X2.0866Y-2.0866
X2.0866Y-2.1366
X2.0866Y-2.1866
X2.0866Y-2.7846
X2.0866Y-2.8346
X4.4114Y-2.4547
X4.4114Y-2.5047
X4.4114Y-2.5547
T4
X2.3591Y-2.1953
X2.3591Y-2.7953
X2.4591Y-2.1953
X2.4591Y-2.7953
X2.5591Y-2.1953
X2.5591Y-2.7953
X2.6591Y-2.1953
X2.6591Y-2.7953
X2.7591Y-2.1953
X2.7591Y-2.7953
X2.8591Y-2.1953
X2.8591Y-2.7953
X2.9591Y-2.1953
X2.9591Y-2.7953
X3.0591Y-2.1953
X3.0591Y-2.7953
X3.1591Y-2.1953
X3.1591Y-2.7953
X3.2591Y-2.1953
X3.2591Y-2.7953
X3.3591Y-2.1953
X3.3591Y-2.7953
X3.4591Y-2.1953
X3.4591Y-2.7953
X3.5591Y-2.1953
X3.5591Y-2.7953
X3.6591Y-2.1953
X3.6591Y-2.7953
X3.7591Y-2.1953
X3.7591Y-2.7953
T5
X2.1024Y-2.4331
X4.3701Y-2.126
X4.3701Y-2.7953
T0
M30
